solid OpenSCAD_Model
  facet normal 1 0 0
    outer loop
      vertex 50 1.50721 13.125
      vertex 50 7.5 15
      vertex 50 2.86948 15
    endloop
  endfacet
  facet normal 1 0 0
    outer loop
      vertex 50 0.550613 10.9764
      vertex 50 7.5 15
      vertex 50 1.50721 13.125
    endloop
  endfacet
  facet normal 1 0 0
    outer loop
      vertex 50 0.0616283 8.67594
      vertex 50 7.5 15
      vertex 50 0.550613 10.9764
    endloop
  endfacet
  facet normal 1 0 0
    outer loop
      vertex 50 7.5 0
      vertex 50 1.50721 1.875
      vertex 50 2.86948 0
    endloop
  endfacet
  facet normal 1 0 0
    outer loop
      vertex 50 7.5 15
      vertex 50 0.0616283 8.67594
      vertex 50 7.5 0
    endloop
  endfacet
  facet normal 1 0 0
    outer loop
      vertex 50 7.5 0
      vertex 50 0.550613 4.02356
      vertex 50 1.50721 1.875
    endloop
  endfacet
  facet normal 1 -0 0
    outer loop
      vertex 50 0.0616283 6.32405
      vertex 50 7.5 0
      vertex 50 0.0616283 8.67594
    endloop
  endfacet
  facet normal 1 0 0
    outer loop
      vertex 50 7.5 0
      vertex 50 0.0616283 6.32405
      vertex 50 0.550613 4.02356
    endloop
  endfacet
  facet normal 0 0 1
    outer loop
      vertex -4.11095 197.83 15
      vertex -5.12077 198.711 15
      vertex -4.5 196 15
    endloop
  endfacet
  facet normal 0 0 1
    outer loop
      vertex -5.12077 198.711 15
      vertex -4.11095 197.83 15
      vertex -3.64139 198.477 15
    endloop
  endfacet
  facet normal 0 0 1
    outer loop
      vertex 1.38141 191.821 15
      vertex 0.9202 191.671 15
      vertex 1.36508 191.718 15
    endloop
  endfacet
  facet normal 0 0 1
    outer loop
      vertex 5.12077 198.711 15
      vertex 4.11095 197.83 15
      vertex 4.5 196 15
    endloop
  endfacet
  facet normal 0 -0 1
    outer loop
      vertex 4.11095 197.83 15
      vertex 5.12077 198.711 15
      vertex 3.64139 198.477 15
    endloop
  endfacet
  facet normal -0 0 1
    outer loop
      vertex 4.5 196 15
      vertex 35.4056 7.5 15
      vertex 5.12077 198.711 15
    endloop
  endfacet
  facet normal -0 0 1
    outer loop
      vertex 4.11095 194.17 15
      vertex 35.4056 7.5 15
      vertex 4.5 196 15
    endloop
  endfacet
  facet normal -0 0 1
    outer loop
      vertex 0 183.099 15
      vertex 35.4056 7.5 15
      vertex 4.11095 194.17 15
    endloop
  endfacet
  facet normal 0 0 1
    outer loop
      vertex 0 183.099 15
      vertex 4.11095 194.17 15
      vertex 3.01109 192.656 15
    endloop
  endfacet
  facet normal 0 0 1
    outer loop
      vertex 0 183.099 15
      vertex 3.01109 192.656 15
      vertex 1.39058 191.72 15
    endloop
  endfacet
  facet normal 0 0 1
    outer loop
      vertex 0 183.099 15
      vertex 1.39058 191.72 15
      vertex 1.36508 191.718 15
    endloop
  endfacet
  facet normal 0 0 1
    outer loop
      vertex 0 183.099 15
      vertex 1.36508 191.718 15
      vertex 0.9202 191.671 15
    endloop
  endfacet
  facet normal 0 0 1
    outer loop
      vertex 0 183.099 15
      vertex 0.9202 191.671 15
      vertex 0 191.574 15
    endloop
  endfacet
  facet normal 0 0 1
    outer loop
      vertex 35.4056 7.5 15
      vertex 0 183.099 15
      vertex 27.8121 7.5 15
    endloop
  endfacet
  facet normal 0 0 1
    outer loop
      vertex -0.9202 191.671 15
      vertex 0 183.099 15
      vertex 0 191.574 15
    endloop
  endfacet
  facet normal 0 0 1
    outer loop
      vertex -1.36508 191.718 15
      vertex 0 183.099 15
      vertex -0.9202 191.671 15
    endloop
  endfacet
  facet normal 0 0 1
    outer loop
      vertex -1.39058 191.72 15
      vertex 0 183.099 15
      vertex -1.36508 191.718 15
    endloop
  endfacet
  facet normal 0 0 1
    outer loop
      vertex -3.01109 192.656 15
      vertex 0 183.099 15
      vertex -1.39058 191.72 15
    endloop
  endfacet
  facet normal 0 0 1
    outer loop
      vertex -4.11095 194.17 15
      vertex 0 183.099 15
      vertex -3.01109 192.656 15
    endloop
  endfacet
  facet normal 0 0 1
    outer loop
      vertex -5.12077 198.711 15
      vertex -4.11095 194.17 15
      vertex -4.5 196 15
    endloop
  endfacet
  facet normal 0 0 1
    outer loop
      vertex -35.4056 7.5 15
      vertex 0 183.099 15
      vertex -4.11095 194.17 15
    endloop
  endfacet
  facet normal 0 0 1
    outer loop
      vertex -35.4056 7.5 15
      vertex -4.11095 194.17 15
      vertex -5.12077 198.711 15
    endloop
  endfacet
  facet normal 0 0 1
    outer loop
      vertex 0 183.099 15
      vertex -35.4056 7.5 15
      vertex -27.8121 7.5 15
    endloop
  endfacet
  facet normal -0 0 1
    outer loop
      vertex 35.4056 7.5 15
      vertex 50 2.86948 15
      vertex 50 7.5 15
    endloop
  endfacet
  facet normal -0 0 1
    outer loop
      vertex 27.8121 7.5 15
      vertex 50 2.86948 15
      vertex 35.4056 7.5 15
    endloop
  endfacet
  facet normal -0 0 1
    outer loop
      vertex -27.8121 7.5 15
      vertex 50 2.86948 15
      vertex 27.8121 7.5 15
    endloop
  endfacet
  facet normal 0 0 1
    outer loop
      vertex -50 2.86948 15
      vertex -27.8121 7.5 15
      vertex -35.4056 7.5 15
    endloop
  endfacet
  facet normal 0 0 1
    outer loop
      vertex -50 2.86948 15
      vertex -35.4056 7.5 15
      vertex -50 7.5 15
    endloop
  endfacet
  facet normal 0 0 1
    outer loop
      vertex -27.8121 7.5 15
      vertex -50 2.86948 15
      vertex 50 2.86948 15
    endloop
  endfacet
  facet normal 0 0 1
    outer loop
      vertex -0.9202 191.671 15
      vertex -1.38141 191.821 15
      vertex -1.36508 191.718 15
    endloop
  endfacet
  facet normal 0 0 -1
    outer loop
      vertex 50 2.86948 0
      vertex 35.4056 7.5 0
      vertex 50 7.5 0
    endloop
  endfacet
  facet normal 0 0 -1
    outer loop
      vertex 50 2.86948 0
      vertex 27.8121 7.5 0
      vertex 35.4056 7.5 0
    endloop
  endfacet
  facet normal 0 0 -1
    outer loop
      vertex 50 2.86948 0
      vertex -27.8121 7.5 0
      vertex 27.8121 7.5 0
    endloop
  endfacet
  facet normal 0 0 -1
    outer loop
      vertex -50 2.86948 0
      vertex -27.8121 7.5 0
      vertex 50 2.86948 0
    endloop
  endfacet
  facet normal -0 0 -1
    outer loop
      vertex -27.8121 7.5 0
      vertex -50 2.86948 0
      vertex -35.4056 7.5 0
    endloop
  endfacet
  facet normal -0 0 -1
    outer loop
      vertex -35.4056 7.5 0
      vertex -50 2.86948 0
      vertex -50 7.5 0
    endloop
  endfacet
  facet normal 0 0 -1
    outer loop
      vertex 0 183.099 0
      vertex 35.4056 7.5 0
      vertex 27.8121 7.5 0
    endloop
  endfacet
  facet normal 0 0 -1
    outer loop
      vertex 35.4056 7.5 0
      vertex 4.5 196 0
      vertex 5.12077 198.711 0
    endloop
  endfacet
  facet normal 0 0 -1
    outer loop
      vertex 35.4056 7.5 0
      vertex 4.11095 194.17 0
      vertex 4.5 196 0
    endloop
  endfacet
  facet normal 0 0 -1
    outer loop
      vertex 35.4056 7.5 0
      vertex 0 183.099 0
      vertex 4.11095 194.17 0
    endloop
  endfacet
  facet normal 0 0 -1
    outer loop
      vertex 4.11095 194.17 0
      vertex 0 183.099 0
      vertex 3.01109 192.656 0
    endloop
  endfacet
  facet normal 0 0 -1
    outer loop
      vertex 3.01109 192.656 0
      vertex 0 183.099 0
      vertex 1.39058 191.72 0
    endloop
  endfacet
  facet normal 0 0 -1
    outer loop
      vertex 1.39058 191.72 0
      vertex 0 183.099 0
      vertex 1.36508 191.718 0
    endloop
  endfacet
  facet normal 0 0 -1
    outer loop
      vertex 1.36508 191.718 0
      vertex 0 183.099 0
      vertex 0.9202 191.671 0
    endloop
  endfacet
  facet normal 0 0 -1
    outer loop
      vertex 0 183.099 0
      vertex 0 191.574 0
      vertex 0.9202 191.671 0
    endloop
  endfacet
  facet normal 0 0 -1
    outer loop
      vertex 0 183.099 0
      vertex -0.9202 191.671 0
      vertex 0 191.574 0
    endloop
  endfacet
  facet normal 0 0 -1
    outer loop
      vertex 0 183.099 0
      vertex -1.36508 191.718 0
      vertex -0.9202 191.671 0
    endloop
  endfacet
  facet normal 0 0 -1
    outer loop
      vertex 0 183.099 0
      vertex -1.39058 191.72 0
      vertex -1.36508 191.718 0
    endloop
  endfacet
  facet normal 0 0 -1
    outer loop
      vertex 0 183.099 0
      vertex -3.01109 192.656 0
      vertex -1.39058 191.72 0
    endloop
  endfacet
  facet normal 0 0 -1
    outer loop
      vertex 0 183.099 0
      vertex -4.11095 194.17 0
      vertex -3.01109 192.656 0
    endloop
  endfacet
  facet normal 0 0 -1
    outer loop
      vertex -4.11095 194.17 0
      vertex -5.12077 198.711 0
      vertex -4.5 196 0
    endloop
  endfacet
  facet normal 0 0 -1
    outer loop
      vertex -35.4056 7.5 0
      vertex 0 183.099 0
      vertex -27.8121 7.5 0
    endloop
  endfacet
  facet normal -0 0 -1
    outer loop
      vertex 0 183.099 0
      vertex -35.4056 7.5 0
      vertex -4.11095 194.17 0
    endloop
  endfacet
  facet normal -0 0 -1
    outer loop
      vertex -4.11095 194.17 0
      vertex -35.4056 7.5 0
      vertex -5.12077 198.711 0
    endloop
  endfacet
  facet normal 0 0 -1
    outer loop
      vertex 4.11095 197.83 0
      vertex 5.12077 198.711 0
      vertex 4.5 196 0
    endloop
  endfacet
  facet normal 0 0 -1
    outer loop
      vertex 5.12077 198.711 0
      vertex 4.11095 197.83 0
      vertex 3.64139 198.477 0
    endloop
  endfacet
  facet normal 0 0 -1
    outer loop
      vertex 1.38141 191.821 0
      vertex 1.36508 191.718 0
      vertex 0.9202 191.671 0
    endloop
  endfacet
  facet normal 0 0 -1
    outer loop
      vertex -0.9202 191.671 0
      vertex -1.36508 191.718 0
      vertex -1.38141 191.821 0
    endloop
  endfacet
  facet normal 0 0 -1
    outer loop
      vertex -4.11095 197.83 0
      vertex -5.12077 198.711 0
      vertex -3.64139 198.477 0
    endloop
  endfacet
  facet normal 0 0 -1
    outer loop
      vertex -5.12077 198.711 0
      vertex -4.11095 197.83 0
      vertex -4.5 196 0
    endloop
  endfacet
  facet normal 0 1 -0
    outer loop
      vertex 27.8121 7.5 0
      vertex -27.8121 7.5 15
      vertex 27.8121 7.5 15
    endloop
  endfacet
  facet normal 0 1 0
    outer loop
      vertex -27.8121 7.5 15
      vertex 27.8121 7.5 0
      vertex -27.8121 7.5 0
    endloop
  endfacet
  facet normal 0 1 0
    outer loop
      vertex 50 7.5 15
      vertex 42.5 7.5 14.3529
      vertex 35.4056 7.5 15
    endloop
  endfacet
  facet normal 0 1 0
    outer loop
      vertex 50 7.5 15
      vertex 44.2128 7.5 14.1274
      vertex 42.5 7.5 14.3529
    endloop
  endfacet
  facet normal 0 1 0
    outer loop
      vertex 50 7.5 15
      vertex 44.2737 7.5 14.1194
      vertex 44.2128 7.5 14.1274
    endloop
  endfacet
  facet normal 0 1 0
    outer loop
      vertex 50 7.5 15
      vertex 45.8697 7.5 13.4583
      vertex 44.2737 7.5 14.1194
    endloop
  endfacet
  facet normal 0 1 0
    outer loop
      vertex 50 7.5 15
      vertex 45.9265 7.5 13.4348
      vertex 45.8697 7.5 13.4583
    endloop
  endfacet
  facet normal 0 1 0
    outer loop
      vertex 50 7.5 15
      vertex 47.297 7.5 12.3832
      vertex 45.9265 7.5 13.4348
    endloop
  endfacet
  facet normal 0 1 0
    outer loop
      vertex 50 7.5 15
      vertex 47.3458 7.5 12.3458
      vertex 47.297 7.5 12.3832
    endloop
  endfacet
  facet normal 0 1 0
    outer loop
      vertex 50 7.5 15
      vertex 47.3832 7.5 12.297
      vertex 47.3458 7.5 12.3458
    endloop
  endfacet
  facet normal 0 1 0
    outer loop
      vertex 50 7.5 15
      vertex 48.4348 7.5 10.9265
      vertex 47.3832 7.5 12.297
    endloop
  endfacet
  facet normal 0 1 0
    outer loop
      vertex 50 7.5 15
      vertex 48.4583 7.5 10.8697
      vertex 48.4348 7.5 10.9265
    endloop
  endfacet
  facet normal 0 1 0
    outer loop
      vertex 50 7.5 15
      vertex 49.1194 7.5 9.27367
      vertex 48.4583 7.5 10.8697
    endloop
  endfacet
  facet normal 0 1 0
    outer loop
      vertex 50 7.5 15
      vertex 49.1274 7.5 9.21277
      vertex 49.1194 7.5 9.27367
    endloop
  endfacet
  facet normal 0 1 0
    outer loop
      vertex 50 7.5 15
      vertex 49.3529 7.5 7.5
      vertex 49.1274 7.5 9.21277
    endloop
  endfacet
  facet normal 0 1 0
    outer loop
      vertex 50 7.5 0
      vertex 48.3974 7.5 4.0248
      vertex 48.4348 7.5 4.07353
    endloop
  endfacet
  facet normal 0 1 0
    outer loop
      vertex 50 7.5 0
      vertex 45.8697 7.5 1.54167
      vertex 45.9265 7.5 1.56518
    endloop
  endfacet
  facet normal 0 1 0
    outer loop
      vertex 50 7.5 0
      vertex 42.5609 7.5 0.655076
      vertex 44.2737 7.5 0.880567
    endloop
  endfacet
  facet normal 0 1 0
    outer loop
      vertex 42.5609 7.5 0.655076
      vertex 50 7.5 0
      vertex 42.5 7.5 0.647059
    endloop
  endfacet
  facet normal 0 1 0
    outer loop
      vertex 45.8697 7.5 1.54167
      vertex 50 7.5 0
      vertex 44.2737 7.5 0.880567
    endloop
  endfacet
  facet normal 0 1 0
    outer loop
      vertex 47.297 7.5 2.61685
      vertex 50 7.5 0
      vertex 45.9265 7.5 1.56518
    endloop
  endfacet
  facet normal 0 1 0
    outer loop
      vertex 47.3458 7.5 2.65424
      vertex 50 7.5 0
      vertex 47.297 7.5 2.61685
    endloop
  endfacet
  facet normal 0 1 0
    outer loop
      vertex 48.3974 7.5 4.0248
      vertex 50 7.5 0
      vertex 47.3458 7.5 2.65424
    endloop
  endfacet
  facet normal 0 1 0
    outer loop
      vertex 48.4583 7.5 4.13028
      vertex 50 7.5 0
      vertex 48.4348 7.5 4.07353
    endloop
  endfacet
  facet normal 0 1 0
    outer loop
      vertex 49.1194 7.5 5.72633
      vertex 50 7.5 0
      vertex 48.4583 7.5 4.13028
    endloop
  endfacet
  facet normal 0 1 0
    outer loop
      vertex 49.1274 7.5 5.78723
      vertex 50 7.5 0
      vertex 49.1194 7.5 5.72633
    endloop
  endfacet
  facet normal 0 1 0
    outer loop
      vertex 49.3529 7.5 7.5
      vertex 50 7.5 0
      vertex 49.1274 7.5 5.78723
    endloop
  endfacet
  facet normal 0 1 -0
    outer loop
      vertex 50 7.5 0
      vertex 49.3529 7.5 7.5
      vertex 50 7.5 15
    endloop
  endfacet
  facet normal 0 1 -0
    outer loop
      vertex 40.7872 7.5 14.1274
      vertex 35.4056 7.5 15
      vertex 42.5 7.5 14.3529
    endloop
  endfacet
  facet normal 0 1 -0
    outer loop
      vertex 40.7263 7.5 14.1194
      vertex 35.4056 7.5 15
      vertex 40.7872 7.5 14.1274
    endloop
  endfacet
  facet normal 0 1 -0
    outer loop
      vertex 39.1303 7.5 13.4583
      vertex 35.4056 7.5 15
      vertex 40.7263 7.5 14.1194
    endloop
  endfacet
  facet normal 0 1 -0
    outer loop
      vertex 39.0735 7.5 13.4348
      vertex 35.4056 7.5 15
      vertex 39.1303 7.5 13.4583
    endloop
  endfacet
  facet normal 0 1 -0
    outer loop
      vertex 39.0248 7.5 13.3974
      vertex 35.4056 7.5 15
      vertex 39.0735 7.5 13.4348
    endloop
  endfacet
  facet normal 0 1 -0
    outer loop
      vertex 37.6542 7.5 12.3458
      vertex 35.4056 7.5 15
      vertex 39.0248 7.5 13.3974
    endloop
  endfacet
  facet normal 0 1 -0
    outer loop
      vertex 37.6168 7.5 12.297
      vertex 35.4056 7.5 15
      vertex 37.6542 7.5 12.3458
    endloop
  endfacet
  facet normal 0 1 -0
    outer loop
      vertex 36.5652 7.5 10.9265
      vertex 35.4056 7.5 15
      vertex 37.6168 7.5 12.297
    endloop
  endfacet
  facet normal 0 1 -0
    outer loop
      vertex 36.5417 7.5 10.8697
      vertex 35.4056 7.5 15
      vertex 36.5652 7.5 10.9265
    endloop
  endfacet
  facet normal 0 1 -0
    outer loop
      vertex 35.8806 7.5 9.27367
      vertex 35.4056 7.5 15
      vertex 36.5417 7.5 10.8697
    endloop
  endfacet
  facet normal 0 1 -0
    outer loop
      vertex 35.6551 7.5 7.5609
      vertex 35.4056 7.5 15
      vertex 35.8806 7.5 9.27367
    endloop
  endfacet
  facet normal 0 1 -0
    outer loop
      vertex 35.6471 7.5 7.5
      vertex 35.4056 7.5 15
      vertex 35.6551 7.5 7.5609
    endloop
  endfacet
  facet normal 0 1 0
    outer loop
      vertex 35.4056 7.5 0
      vertex 39.0248 7.5 1.60257
      vertex 39.0735 7.5 1.56518
    endloop
  endfacet
  facet normal 0 1 0
    outer loop
      vertex 35.4056 7.5 0
      vertex 39.1303 7.5 1.54167
      vertex 40.7263 7.5 0.880567
    endloop
  endfacet
  facet normal 0 1 0
    outer loop
      vertex 35.4056 7.5 0
      vertex 42.4391 7.5 0.655076
      vertex 42.5 7.5 0.647059
    endloop
  endfacet
  facet normal 0 1 0
    outer loop
      vertex 35.6471 7.5 7.5
      vertex 35.4056 7.5 0
      vertex 35.4056 7.5 15
    endloop
  endfacet
  facet normal 0 1 0
    outer loop
      vertex 35.6551 7.5 7.4391
      vertex 35.4056 7.5 0
      vertex 35.6471 7.5 7.5
    endloop
  endfacet
  facet normal 0 1 0
    outer loop
      vertex 35.8806 7.5 5.72633
      vertex 35.4056 7.5 0
      vertex 35.6551 7.5 7.4391
    endloop
  endfacet
  facet normal 0 1 0
    outer loop
      vertex 36.5417 7.5 4.13028
      vertex 35.4056 7.5 0
      vertex 35.8806 7.5 5.72633
    endloop
  endfacet
  facet normal 0 1 0
    outer loop
      vertex 36.5652 7.5 4.07353
      vertex 35.4056 7.5 0
      vertex 36.5417 7.5 4.13028
    endloop
  endfacet
  facet normal 0 1 0
    outer loop
      vertex 36.6026 7.5 4.0248
      vertex 35.4056 7.5 0
      vertex 36.5652 7.5 4.07353
    endloop
  endfacet
  facet normal 0 1 0
    outer loop
      vertex 37.6542 7.5 2.65424
      vertex 35.4056 7.5 0
      vertex 36.6026 7.5 4.0248
    endloop
  endfacet
  facet normal 0 1 0
    outer loop
      vertex 39.0248 7.5 1.60257
      vertex 35.4056 7.5 0
      vertex 37.6542 7.5 2.65424
    endloop
  endfacet
  facet normal 0 1 0
    outer loop
      vertex 39.1303 7.5 1.54167
      vertex 35.4056 7.5 0
      vertex 39.0735 7.5 1.56518
    endloop
  endfacet
  facet normal 0 1 0
    outer loop
      vertex 42.4391 7.5 0.655076
      vertex 35.4056 7.5 0
      vertex 40.7263 7.5 0.880567
    endloop
  endfacet
  facet normal 0 1 0
    outer loop
      vertex 35.4056 7.5 0
      vertex 42.5 7.5 0.647059
      vertex 50 7.5 0
    endloop
  endfacet
  facet normal -0.512381 0.539962 -0.667762
    outer loop
      vertex 43.6 0.197467 9.31501
      vertex 45.9265 7.5 13.4348
      vertex 47.297 7.5 12.3832
    endloop
  endfacet
  facet normal -0.511769 0.54001 -0.668192
    outer loop
      vertex 45.9265 7.5 13.4348
      vertex 43.6 0.197467 9.31501
      vertex 43.566 0.204148 9.34645
    endloop
  endfacet
  facet normal -0.777656 0.539955 0.322025
    outer loop
      vertex 44.2666 0.0616283 6.48006
      vertex 48.4583 7.5 4.13028
      vertex 48.4348 7.5 4.07353
    endloop
  endfacet
  facet normal -0.777655 0.539955 0.322027
    outer loop
      vertex 48.4583 7.5 4.13028
      vertex 44.2666 0.0616283 6.48006
      vertex 44.4649 0.0616283 6.95893
    endloop
  endfacet
  facet normal 0.512308 0.539972 0.66781
    outer loop
      vertex 39.0735 7.5 1.56518
      vertex 41.0504 0.128616 6.0089
      vertex 41.434 0.204148 5.65355
    endloop
  endfacet
  facet normal 0.512581 0.539937 0.66763
    outer loop
      vertex 41.0504 0.128616 6.0089
      vertex 39.0735 7.5 1.56518
      vertex 39.0248 7.5 1.60257
    endloop
  endfacet
  facet normal -0.834488 0.539961 0.109867
    outer loop
      vertex 44.538 0.0616283 7.48593
      vertex 49.3529 7.5 7.5
      vertex 49.1274 7.5 5.78723
    endloop
  endfacet
  facet normal -0.834229 0.539788 0.112654
    outer loop
      vertex 49.3529 7.5 7.5
      vertex 44.538 0.0616283 7.48593
      vertex 44.5399 0.0616283 7.5
    endloop
  endfacet
  facet normal -0.834532 0.539943 0.109626
    outer loop
      vertex 44.4704 0.0616283 6.97204
      vertex 49.1274 7.5 5.78723
      vertex 49.1194 7.5 5.72633
    endloop
  endfacet
  facet normal -0.834507 0.539952 0.109776
    outer loop
      vertex 49.1274 7.5 5.78723
      vertex 44.4704 0.0616283 6.97204
      vertex 44.538 0.0616283 7.48593
    endloop
  endfacet
  facet normal -0.322107 0.53996 -0.777618
    outer loop
      vertex 43.1131 0.250936 9.56657
      vertex 44.2737 7.5 14.1194
      vertex 45.8697 7.5 13.4583
    endloop
  endfacet
  facet normal -0.322087 0.539961 -0.777626
    outer loop
      vertex 44.2737 7.5 14.1194
      vertex 43.1131 0.250936 9.56657
      vertex 43.0606 0.256358 9.59208
    endloop
  endfacet
  facet normal -0.512005 0.539938 -0.66807
    outer loop
      vertex 43.9711 0.124369 8.97112
      vertex 47.297 7.5 12.3832
      vertex 47.3458 7.5 12.3458
    endloop
  endfacet
  facet normal -0.512413 0.539967 -0.667734
    outer loop
      vertex 47.297 7.5 12.3832
      vertex 43.9711 0.124369 8.97112
      vertex 43.6 0.197467 9.31501
    endloop
  endfacet
  facet normal 0.10985 0.539958 -0.834493
    outer loop
      vertex 41.9394 0.256358 9.59208
      vertex 40.7872 7.5 14.1274
      vertex 42.4378 0.272527 9.66815
    endloop
  endfacet
  facet normal 0.109626 0.539946 -0.83453
    outer loop
      vertex 40.7872 7.5 14.1274
      vertex 41.9394 0.256358 9.59208
      vertex 40.7263 7.5 14.1194
    endloop
  endfacet
  facet normal 0.834684 0.540278 0.106783
    outer loop
      vertex 40.5296 0.0616283 6.97204
      vertex 35.6551 7.5 7.4391
      vertex 40.5278 0.0616283 6.98611
    endloop
  endfacet
  facet normal 0.83449 0.539958 0.109867
    outer loop
      vertex 35.6551 7.5 7.4391
      vertex 40.5296 0.0616283 6.97204
      vertex 35.8806 7.5 5.72633
    endloop
  endfacet
  facet normal 0.667709 0.539951 0.512463
    outer loop
      vertex 36.5652 7.5 4.07353
      vertex 41.0145 0.119239 6.05302
      vertex 36.6026 7.5 4.0248
    endloop
  endfacet
  facet normal 0.667754 0.53996 0.512395
    outer loop
      vertex 40.7334 0.0616283 6.48006
      vertex 41.0145 0.119239 6.05302
      vertex 36.5652 7.5 4.07353
    endloop
  endfacet
  facet normal 0.667919 0.539686 0.512467
    outer loop
      vertex 41.0145 0.119239 6.05302
      vertex 40.7334 0.0616283 6.48006
      vertex 40.8531 0.0616283 6.32405
    endloop
  endfacet
  facet normal 0.66776 0.539966 -0.51238
    outer loop
      vertex 40.7421 0.0616283 8.5312
      vertex 36.5652 7.5 10.9265
      vertex 37.6168 7.5 12.297
    endloop
  endfacet
  facet normal 0.666129 0.539792 -0.514682
    outer loop
      vertex 36.5652 7.5 10.9265
      vertex 40.7421 0.0616283 8.5312
      vertex 40.7334 0.0616283 8.51994
    endloop
  endfacet
  facet normal -0.322108 0.539962 0.777616
    outer loop
      vertex 44.2737 7.5 0.880567
      vertex 43.1131 0.250936 5.43343
      vertex 45.8697 7.5 1.54167
    endloop
  endfacet
  facet normal -0.322086 0.539964 0.777624
    outer loop
      vertex 43.1131 0.250936 5.43343
      vertex 44.2737 7.5 0.880567
      vertex 43.0606 0.256358 5.40792
    endloop
  endfacet
  facet normal -0.834507 0.539952 -0.109776
    outer loop
      vertex 44.4704 0.0616283 8.02796
      vertex 49.1274 7.5 9.21277
      vertex 44.538 0.0616283 7.51407
    endloop
  endfacet
  facet normal -0.834532 0.539943 -0.109626
    outer loop
      vertex 49.1274 7.5 9.21277
      vertex 44.4704 0.0616283 8.02796
      vertex 49.1194 7.5 9.27367
    endloop
  endfacet
  facet normal -0.777655 0.539955 -0.322027
    outer loop
      vertex 44.2666 0.0616283 8.51994
      vertex 48.4583 7.5 10.8697
      vertex 44.4649 0.0616283 8.04107
    endloop
  endfacet
  facet normal -0.777765 0.53994 -0.321786
    outer loop
      vertex 48.4583 7.5 10.8697
      vertex 44.2666 0.0616283 8.51994
      vertex 48.4348 7.5 10.9265
    endloop
  endfacet
  facet normal 0.777765 0.53994 -0.321786
    outer loop
      vertex 40.7334 0.0616283 8.51994
      vertex 36.5417 7.5 10.8697
      vertex 36.5652 7.5 10.9265
    endloop
  endfacet
  facet normal 0.777655 0.539955 -0.322027
    outer loop
      vertex 36.5417 7.5 10.8697
      vertex 40.7334 0.0616283 8.51994
      vertex 40.5351 0.0616283 8.04107
    endloop
  endfacet
  facet normal 0.777618 0.539963 -0.322101
    outer loop
      vertex 40.5351 0.0616283 8.04107
      vertex 35.8806 7.5 9.27367
      vertex 36.5417 7.5 10.8697
    endloop
  endfacet
  facet normal 0.776293 0.539726 -0.325676
    outer loop
      vertex 35.8806 7.5 9.27367
      vertex 40.5351 0.0616283 8.04107
      vertex 40.5296 0.0616283 8.02796
    endloop
  endfacet
  facet normal -0.667709 0.539951 0.512463
    outer loop
      vertex 43.9855 0.119239 6.05302
      vertex 48.4348 7.5 4.07353
      vertex 48.3974 7.5 4.0248
    endloop
  endfacet
  facet normal -0.667919 0.539686 0.512467
    outer loop
      vertex 44.2666 0.0616283 6.48006
      vertex 43.9855 0.119239 6.05302
      vertex 44.1469 0.0616283 6.32405
    endloop
  endfacet
  facet normal -0.667754 0.53996 0.512395
    outer loop
      vertex 43.9855 0.119239 6.05302
      vertex 44.2666 0.0616283 6.48006
      vertex 48.4348 7.5 4.07353
    endloop
  endfacet
  facet normal -0.109918 0.539956 -0.834485
    outer loop
      vertex 42.5 7.5 14.3529
      vertex 42.5622 0.272527 9.66815
      vertex 42.5 0.274547 9.67765
    endloop
  endfacet
  facet normal -0.109865 0.53996 -0.83449
    outer loop
      vertex 42.5622 0.272527 9.66815
      vertex 42.5 7.5 14.3529
      vertex 44.2128 7.5 14.1274
    endloop
  endfacet
  facet normal -0.776293 0.539726 -0.325676
    outer loop
      vertex 44.4649 0.0616283 8.04107
      vertex 49.1194 7.5 9.27367
      vertex 44.4704 0.0616283 8.02796
    endloop
  endfacet
  facet normal -0.777618 0.539963 -0.322101
    outer loop
      vertex 49.1194 7.5 9.27367
      vertex 44.4649 0.0616283 8.04107
      vertex 48.4583 7.5 10.8697
    endloop
  endfacet
  facet normal -0.834229 0.539788 -0.112654
    outer loop
      vertex 44.538 0.0616283 7.51407
      vertex 49.3529 7.5 7.5
      vertex 44.5399 0.0616283 7.5
    endloop
  endfacet
  facet normal -0.834488 0.539961 -0.109867
    outer loop
      vertex 49.3529 7.5 7.5
      vertex 44.538 0.0616283 7.51407
      vertex 49.1274 7.5 9.21277
    endloop
  endfacet
  facet normal 0.322148 0.539967 0.777597
    outer loop
      vertex 39.1303 7.5 1.54167
      vertex 41.434 0.204148 5.65355
      vertex 41.8869 0.250936 5.43343
    endloop
  endfacet
  facet normal 0.3219 0.539952 0.777709
    outer loop
      vertex 41.434 0.204148 5.65355
      vertex 39.1303 7.5 1.54167
      vertex 39.0735 7.5 1.56518
    endloop
  endfacet
  facet normal 0.66807 0.539939 -0.512005
    outer loop
      vertex 41.0289 0.124369 8.97112
      vertex 37.6168 7.5 12.297
      vertex 37.6542 7.5 12.3458
    endloop
  endfacet
  facet normal 0.668479 0.538818 -0.512651
    outer loop
      vertex 40.7421 0.0616283 8.5312
      vertex 41.0289 0.124369 8.97112
      vertex 40.8531 0.0616283 8.67594
    endloop
  endfacet
  facet normal 0.667779 0.539963 -0.512358
    outer loop
      vertex 41.0289 0.124369 8.97112
      vertex 40.7421 0.0616283 8.5312
      vertex 37.6168 7.5 12.297
    endloop
  endfacet
  facet normal -0.66807 0.539939 -0.512005
    outer loop
      vertex 47.3832 7.5 12.297
      vertex 43.9711 0.124369 8.97112
      vertex 47.3458 7.5 12.3458
    endloop
  endfacet
  facet normal -0.667779 0.539963 -0.512358
    outer loop
      vertex 44.2579 0.0616283 8.5312
      vertex 43.9711 0.124369 8.97112
      vertex 47.3832 7.5 12.297
    endloop
  endfacet
  facet normal -0.668479 0.538818 -0.512651
    outer loop
      vertex 43.9711 0.124369 8.97112
      vertex 44.2579 0.0616283 8.5312
      vertex 44.1469 0.0616283 8.67594
    endloop
  endfacet
  facet normal 0.777655 0.539955 0.322027
    outer loop
      vertex 40.7334 0.0616283 6.48006
      vertex 36.5417 7.5 4.13028
      vertex 40.5351 0.0616283 6.95893
    endloop
  endfacet
  facet normal 0.777656 0.539955 0.322025
    outer loop
      vertex 36.5417 7.5 4.13028
      vertex 40.7334 0.0616283 6.48006
      vertex 36.5652 7.5 4.07353
    endloop
  endfacet
  facet normal 0.109918 0.539956 -0.834485
    outer loop
      vertex 42.4378 0.272527 9.66815
      vertex 42.5 7.5 14.3529
      vertex 42.5 0.274547 9.67765
    endloop
  endfacet
  facet normal 0.109865 0.53996 -0.83449
    outer loop
      vertex 42.5 7.5 14.3529
      vertex 42.4378 0.272527 9.66815
      vertex 40.7872 7.5 14.1274
    endloop
  endfacet
  facet normal -0.666129 0.539792 -0.514682
    outer loop
      vertex 44.2579 0.0616283 8.5312
      vertex 48.4348 7.5 10.9265
      vertex 44.2666 0.0616283 8.51994
    endloop
  endfacet
  facet normal -0.66776 0.539966 -0.51238
    outer loop
      vertex 48.4348 7.5 10.9265
      vertex 44.2579 0.0616283 8.5312
      vertex 47.3832 7.5 12.297
    endloop
  endfacet
  facet normal 0.83449 0.539958 -0.109867
    outer loop
      vertex 40.5296 0.0616283 8.02796
      vertex 35.6551 7.5 7.5609
      vertex 35.8806 7.5 9.27367
    endloop
  endfacet
  facet normal 0.834688 0.540286 -0.106707
    outer loop
      vertex 35.6551 7.5 7.5609
      vertex 40.5296 0.0616283 8.02796
      vertex 40.5278 0.0616283 8.01388
    endloop
  endfacet
  facet normal 0.834483 0.539955 -0.109937
    outer loop
      vertex 40.4601 0.0616283 7.5
      vertex 35.6551 7.5 7.5609
      vertex 40.5278 0.0616283 8.01388
    endloop
  endfacet
  facet normal 0.834513 0.539972 -0.109624
    outer loop
      vertex 35.6551 7.5 7.5609
      vertex 40.4601 0.0616283 7.5
      vertex 35.6471 7.5 7.5
    endloop
  endfacet
  facet normal 0.513328 0.539844 0.667131
    outer loop
      vertex 39.0248 7.5 1.60257
      vertex 41.0289 0.124369 6.02888
      vertex 41.0504 0.128616 6.0089
    endloop
  endfacet
  facet normal 0.512378 0.539965 0.667762
    outer loop
      vertex 41.0289 0.124369 6.02888
      vertex 39.0248 7.5 1.60257
      vertex 37.6542 7.5 2.65424
    endloop
  endfacet
  facet normal 0.776293 0.539726 0.325676
    outer loop
      vertex 40.5351 0.0616283 6.95893
      vertex 35.8806 7.5 5.72633
      vertex 40.5296 0.0616283 6.97204
    endloop
  endfacet
  facet normal 0.77762 0.539963 0.322098
    outer loop
      vertex 35.8806 7.5 5.72633
      vertex 40.5351 0.0616283 6.95893
      vertex 36.5417 7.5 4.13028
    endloop
  endfacet
  facet normal -0.321786 0.539943 -0.777763
    outer loop
      vertex 43.566 0.204148 9.34645
      vertex 45.8697 7.5 13.4583
      vertex 45.9265 7.5 13.4348
    endloop
  endfacet
  facet normal -0.322148 0.539964 -0.777598
    outer loop
      vertex 45.8697 7.5 13.4583
      vertex 43.566 0.204148 9.34645
      vertex 43.1131 0.250936 9.56657
    endloop
  endfacet
  facet normal 0.513134 0.539867 -0.667261
    outer loop
      vertex 41.0289 0.124369 8.97112
      vertex 39.0248 7.5 13.3974
      vertex 41.0504 0.128616 8.99109
    endloop
  endfacet
  facet normal 0.512356 0.539966 -0.667778
    outer loop
      vertex 39.0248 7.5 13.3974
      vertex 41.0289 0.124369 8.97112
      vertex 37.6542 7.5 12.3458
    endloop
  endfacet
  facet normal 0.834513 0.539972 0.109624
    outer loop
      vertex 40.4601 0.0616283 7.5
      vertex 35.6551 7.5 7.4391
      vertex 35.6471 7.5 7.5
    endloop
  endfacet
  facet normal 0.834483 0.539955 0.109935
    outer loop
      vertex 35.6551 7.5 7.4391
      vertex 40.4601 0.0616283 7.5
      vertex 40.5278 0.0616283 6.98611
    endloop
  endfacet
  facet normal -0.109626 0.539946 -0.83453
    outer loop
      vertex 43.0606 0.256358 9.59208
      vertex 44.2128 7.5 14.1274
      vertex 44.2737 7.5 14.1194
    endloop
  endfacet
  facet normal -0.10985 0.539958 -0.834493
    outer loop
      vertex 44.2128 7.5 14.1274
      vertex 43.0606 0.256358 9.59208
      vertex 42.5622 0.272527 9.66815
    endloop
  endfacet
  facet normal -0.109854 0.539963 0.834489
    outer loop
      vertex 42.5 0.274547 5.32235
      vertex 42.5609 7.5 0.655076
      vertex 42.5 7.5 0.647059
    endloop
  endfacet
  facet normal -0.109873 0.539962 0.834487
    outer loop
      vertex 42.5609 7.5 0.655076
      vertex 42.5 0.274547 5.32235
      vertex 43.0019 0.258262 5.39897
    endloop
  endfacet
  facet normal 0.322087 0.539961 -0.777626
    outer loop
      vertex 41.8869 0.250936 9.56657
      vertex 40.7263 7.5 14.1194
      vertex 41.9394 0.256358 9.59208
    endloop
  endfacet
  facet normal 0.322107 0.53996 -0.777618
    outer loop
      vertex 40.7263 7.5 14.1194
      vertex 41.8869 0.250936 9.56657
      vertex 39.1303 7.5 13.4583
    endloop
  endfacet
  facet normal 0.667772 0.539965 0.512366
    outer loop
      vertex 36.6026 7.5 4.0248
      vertex 41.0289 0.124369 6.02888
      vertex 37.6542 7.5 2.65424
    endloop
  endfacet
  facet normal 0.667435 0.5399 0.512873
    outer loop
      vertex 41.0289 0.124369 6.02888
      vertex 36.6026 7.5 4.0248
      vertex 41.0145 0.119239 6.05302
    endloop
  endfacet
  facet normal 0.322086 0.539964 0.777624
    outer loop
      vertex 40.7263 7.5 0.880567
      vertex 41.8869 0.250936 5.43343
      vertex 41.9394 0.256358 5.40792
    endloop
  endfacet
  facet normal 0.322108 0.539962 0.777616
    outer loop
      vertex 41.8869 0.250936 5.43343
      vertex 40.7263 7.5 0.880567
      vertex 39.1303 7.5 1.54167
    endloop
  endfacet
  facet normal -0.512403 0.539961 0.667746
    outer loop
      vertex 45.9265 7.5 1.56518
      vertex 43.6 0.197467 5.68498
      vertex 47.297 7.5 2.61685
    endloop
  endfacet
  facet normal -0.511649 0.54002 0.668277
    outer loop
      vertex 43.6 0.197467 5.68498
      vertex 45.9265 7.5 1.56518
      vertex 43.566 0.204148 5.65355
    endloop
  endfacet
  facet normal 0.109721 0.539978 0.834497
    outer loop
      vertex 42.4391 7.5 0.655076
      vertex 41.9394 0.256358 5.40792
      vertex 41.9981 0.258262 5.39897
    endloop
  endfacet
  facet normal 0.109861 0.539963 0.834488
    outer loop
      vertex 41.9394 0.256358 5.40792
      vertex 42.4391 7.5 0.655076
      vertex 40.7263 7.5 0.880567
    endloop
  endfacet
  facet normal 0.512319 0.53997 -0.667803
    outer loop
      vertex 41.0504 0.128616 8.99109
      vertex 39.0735 7.5 13.4348
      vertex 41.434 0.204148 9.34645
    endloop
  endfacet
  facet normal 0.512672 0.539924 -0.66757
    outer loop
      vertex 39.0735 7.5 13.4348
      vertex 41.0504 0.128616 8.99109
      vertex 39.0248 7.5 13.3974
    endloop
  endfacet
  facet normal 0.322148 0.539964 -0.777598
    outer loop
      vertex 41.434 0.204148 9.34645
      vertex 39.1303 7.5 13.4583
      vertex 41.8869 0.250936 9.56657
    endloop
  endfacet
  facet normal 0.321786 0.539943 -0.777763
    outer loop
      vertex 39.1303 7.5 13.4583
      vertex 41.434 0.204148 9.34645
      vertex 39.0735 7.5 13.4348
    endloop
  endfacet
  facet normal -0.3219 0.539952 0.777709
    outer loop
      vertex 45.8697 7.5 1.54167
      vertex 43.566 0.204148 5.65355
      vertex 45.9265 7.5 1.56518
    endloop
  endfacet
  facet normal -0.322148 0.539967 0.777597
    outer loop
      vertex 43.566 0.204148 5.65355
      vertex 45.8697 7.5 1.54167
      vertex 43.1131 0.250936 5.43343
    endloop
  endfacet
  facet normal -0.109861 0.539963 0.834488
    outer loop
      vertex 42.5609 7.5 0.655076
      vertex 43.0606 0.256358 5.40792
      vertex 44.2737 7.5 0.880567
    endloop
  endfacet
  facet normal -0.109721 0.539978 0.834497
    outer loop
      vertex 43.0606 0.256358 5.40792
      vertex 42.5609 7.5 0.655076
      vertex 43.0019 0.258262 5.39897
    endloop
  endfacet
  facet normal -0.511922 0.539929 0.668141
    outer loop
      vertex 47.297 7.5 2.61685
      vertex 43.9711 0.124369 6.02888
      vertex 47.3458 7.5 2.65424
    endloop
  endfacet
  facet normal -0.512425 0.539964 0.667727
    outer loop
      vertex 43.9711 0.124369 6.02888
      vertex 47.297 7.5 2.61685
      vertex 43.6 0.197467 5.68498
    endloop
  endfacet
  facet normal -0.667772 0.539965 0.512366
    outer loop
      vertex 43.9711 0.124369 6.02888
      vertex 48.3974 7.5 4.0248
      vertex 47.3458 7.5 2.65424
    endloop
  endfacet
  facet normal -0.667435 0.5399 0.512873
    outer loop
      vertex 48.3974 7.5 4.0248
      vertex 43.9711 0.124369 6.02888
      vertex 43.9855 0.119239 6.05302
    endloop
  endfacet
  facet normal -0.77762 0.539963 0.322098
    outer loop
      vertex 44.4649 0.0616283 6.95893
      vertex 49.1194 7.5 5.72633
      vertex 48.4583 7.5 4.13028
    endloop
  endfacet
  facet normal -0.776293 0.539726 0.325676
    outer loop
      vertex 49.1194 7.5 5.72633
      vertex 44.4649 0.0616283 6.95893
      vertex 44.4704 0.0616283 6.97204
    endloop
  endfacet
  facet normal 0.109854 0.539963 0.834489
    outer loop
      vertex 42.4391 7.5 0.655076
      vertex 42.5 0.274547 5.32235
      vertex 42.5 7.5 0.647059
    endloop
  endfacet
  facet normal 0.109873 0.539962 0.834487
    outer loop
      vertex 42.5 0.274547 5.32235
      vertex 42.4391 7.5 0.655076
      vertex 41.9981 0.258262 5.39897
    endloop
  endfacet
  facet normal 0.987688 0.156434 0
    outer loop
      vertex 35.4056 7.5 15
      vertex 5.12077 198.711 0
      vertex 5.12077 198.711 15
    endloop
  endfacet
  facet normal 0.987688 0.156434 0
    outer loop
      vertex 5.12077 198.711 0
      vertex 35.4056 7.5 15
      vertex 35.4056 7.5 0
    endloop
  endfacet
  facet normal -0.987664 -0.156588 0
    outer loop
      vertex -1.36508 191.718 0
      vertex -1.38141 191.821 15
      vertex -1.38141 191.821 0
    endloop
  endfacet
  facet normal -0.987664 -0.156588 0
    outer loop
      vertex -1.38141 191.821 15
      vertex -1.36508 191.718 0
      vertex -1.36508 191.718 15
    endloop
  endfacet
  facet normal -0.987688 -0.156434 0
    outer loop
      vertex 27.8121 7.5 0
      vertex 0 183.099 15
      vertex 0 183.099 0
    endloop
  endfacet
  facet normal -0.987688 -0.156434 0
    outer loop
      vertex 0 183.099 15
      vertex 27.8121 7.5 0
      vertex 27.8121 7.5 15
    endloop
  endfacet
  facet normal -0.156232 0.98772 0
    outer loop
      vertex 5.12077 198.711 0
      vertex 3.64139 198.477 15
      vertex 5.12077 198.711 15
    endloop
  endfacet
  facet normal -0.156232 0.98772 0
    outer loop
      vertex 3.64139 198.477 15
      vertex 5.12077 198.711 0
      vertex 3.64139 198.477 0
    endloop
  endfacet
  facet normal -0.809322 -0.587365 0
    outer loop
      vertex 4.11095 197.83 0
      vertex 3.64139 198.477 15
      vertex 3.64139 198.477 0
    endloop
  endfacet
  facet normal -0.809322 -0.587365 0
    outer loop
      vertex 3.64139 198.477 15
      vertex 4.11095 197.83 0
      vertex 4.11095 197.83 15
    endloop
  endfacet
  facet normal -0.97814 -0.207948 0
    outer loop
      vertex 4.5 196 0
      vertex 4.11095 197.83 15
      vertex 4.11095 197.83 0
    endloop
  endfacet
  facet normal -0.97814 -0.207948 0
    outer loop
      vertex 4.11095 197.83 15
      vertex 4.5 196 0
      vertex 4.5 196 15
    endloop
  endfacet
  facet normal -0.50016 0.865933 0
    outer loop
      vertex 3.01109 192.656 0
      vertex 1.39058 191.72 15
      vertex 3.01109 192.656 15
    endloop
  endfacet
  facet normal -0.50016 0.865933 0
    outer loop
      vertex 1.39058 191.72 15
      vertex 3.01109 192.656 0
      vertex 1.39058 191.72 0
    endloop
  endfacet
  facet normal -0.97814 0.207948 0
    outer loop
      vertex 4.11095 194.17 0
      vertex 4.5 196 15
      vertex 4.5 196 0
    endloop
  endfacet
  facet normal -0.97814 0.207948 0
    outer loop
      vertex 4.5 196 15
      vertex 4.11095 194.17 0
      vertex 4.11095 194.17 15
    endloop
  endfacet
  facet normal 0.309285 0.950969 -0
    outer loop
      vertex -0.9202 191.671 0
      vertex -1.38141 191.821 15
      vertex -0.9202 191.671 15
    endloop
  endfacet
  facet normal 0.309285 0.950969 0
    outer loop
      vertex -1.38141 191.821 15
      vertex -0.9202 191.671 0
      vertex -1.38141 191.821 0
    endloop
  endfacet
  facet normal -0.0781912 0.996938 0
    outer loop
      vertex 1.39058 191.72 0
      vertex 1.36508 191.718 15
      vertex 1.39058 191.72 15
    endloop
  endfacet
  facet normal -0.0781912 0.996938 0
    outer loop
      vertex 1.36508 191.718 15
      vertex 1.39058 191.72 0
      vertex 1.36508 191.718 0
    endloop
  endfacet
  facet normal -0.104831 0.99449 0
    outer loop
      vertex 0.9202 191.671 0
      vertex 0 191.574 15
      vertex 0.9202 191.671 15
    endloop
  endfacet
  facet normal -0.104831 0.99449 0
    outer loop
      vertex 0 191.574 15
      vertex 0.9202 191.671 0
      vertex 0 191.574 0
    endloop
  endfacet
  facet normal -0.809049 0.587741 0
    outer loop
      vertex 3.01109 192.656 0
      vertex 4.11095 194.17 15
      vertex 4.11095 194.17 0
    endloop
  endfacet
  facet normal -0.809049 0.587741 0
    outer loop
      vertex 4.11095 194.17 15
      vertex 3.01109 192.656 0
      vertex 3.01109 192.656 15
    endloop
  endfacet
  facet normal -1 0 0
    outer loop
      vertex -50 1.50721 1.875
      vertex -50 7.5 0
      vertex -50 2.86948 0
    endloop
  endfacet
  facet normal -1 0 0
    outer loop
      vertex -50 0.550613 4.02356
      vertex -50 7.5 0
      vertex -50 1.50721 1.875
    endloop
  endfacet
  facet normal -1 0 0
    outer loop
      vertex -50 0.0616283 6.32405
      vertex -50 7.5 0
      vertex -50 0.550613 4.02356
    endloop
  endfacet
  facet normal -1 -0 0
    outer loop
      vertex -50 7.5 15
      vertex -50 1.50721 13.125
      vertex -50 2.86948 15
    endloop
  endfacet
  facet normal -1 0 0
    outer loop
      vertex -50 7.5 0
      vertex -50 0.0616283 6.32405
      vertex -50 7.5 15
    endloop
  endfacet
  facet normal -1 0 0
    outer loop
      vertex -50 7.5 15
      vertex -50 0.550613 10.9764
      vertex -50 1.50721 13.125
    endloop
  endfacet
  facet normal -1 0 0
    outer loop
      vertex -50 0.0616283 8.67594
      vertex -50 7.5 15
      vertex -50 0.0616283 6.32405
    endloop
  endfacet
  facet normal -1 0 0
    outer loop
      vertex -50 7.5 15
      vertex -50 0.0616283 8.67594
      vertex -50 0.550613 10.9764
    endloop
  endfacet
  facet normal 0 1 0
    outer loop
      vertex -35.4056 7.5 15
      vertex -42.5 7.5 14.3529
      vertex -50 7.5 15
    endloop
  endfacet
  facet normal 0 1 0
    outer loop
      vertex -35.4056 7.5 15
      vertex -40.7872 7.5 14.1274
      vertex -42.5 7.5 14.3529
    endloop
  endfacet
  facet normal 0 1 0
    outer loop
      vertex -35.4056 7.5 15
      vertex -40.7263 7.5 14.1194
      vertex -40.7872 7.5 14.1274
    endloop
  endfacet
  facet normal 0 1 0
    outer loop
      vertex -35.4056 7.5 15
      vertex -39.1303 7.5 13.4583
      vertex -40.7263 7.5 14.1194
    endloop
  endfacet
  facet normal 0 1 0
    outer loop
      vertex -35.4056 7.5 15
      vertex -39.0735 7.5 13.4348
      vertex -39.1303 7.5 13.4583
    endloop
  endfacet
  facet normal 0 1 0
    outer loop
      vertex -35.4056 7.5 15
      vertex -39.0248 7.5 13.3974
      vertex -39.0735 7.5 13.4348
    endloop
  endfacet
  facet normal 0 1 0
    outer loop
      vertex -35.4056 7.5 15
      vertex -37.6542 7.5 12.3458
      vertex -39.0248 7.5 13.3974
    endloop
  endfacet
  facet normal 0 1 0
    outer loop
      vertex -35.4056 7.5 15
      vertex -37.6168 7.5 12.297
      vertex -37.6542 7.5 12.3458
    endloop
  endfacet
  facet normal 0 1 0
    outer loop
      vertex -35.4056 7.5 15
      vertex -36.5652 7.5 10.9265
      vertex -37.6168 7.5 12.297
    endloop
  endfacet
  facet normal 0 1 0
    outer loop
      vertex -35.4056 7.5 15
      vertex -36.5417 7.5 10.8697
      vertex -36.5652 7.5 10.9265
    endloop
  endfacet
  facet normal 0 1 0
    outer loop
      vertex -35.4056 7.5 15
      vertex -35.8806 7.5 9.27367
      vertex -36.5417 7.5 10.8697
    endloop
  endfacet
  facet normal 0 1 0
    outer loop
      vertex -35.4056 7.5 15
      vertex -35.6551 7.5 7.5609
      vertex -35.8806 7.5 9.27367
    endloop
  endfacet
  facet normal 0 1 0
    outer loop
      vertex -35.4056 7.5 15
      vertex -35.6471 7.5 7.5
      vertex -35.6551 7.5 7.5609
    endloop
  endfacet
  facet normal 0 1 0
    outer loop
      vertex -35.4056 7.5 0
      vertex -39.0248 7.5 1.60257
      vertex -37.6542 7.5 2.65424
    endloop
  endfacet
  facet normal 0 1 0
    outer loop
      vertex -35.4056 7.5 0
      vertex -39.1303 7.5 1.54167
      vertex -39.0735 7.5 1.56518
    endloop
  endfacet
  facet normal 0 1 0
    outer loop
      vertex -35.4056 7.5 0
      vertex -42.4391 7.5 0.655076
      vertex -40.7263 7.5 0.880567
    endloop
  endfacet
  facet normal 0 1 0
    outer loop
      vertex -42.4391 7.5 0.655076
      vertex -35.4056 7.5 0
      vertex -42.5 7.5 0.647059
    endloop
  endfacet
  facet normal 0 1 0
    outer loop
      vertex -39.1303 7.5 1.54167
      vertex -35.4056 7.5 0
      vertex -40.7263 7.5 0.880567
    endloop
  endfacet
  facet normal 0 1 0
    outer loop
      vertex -39.0248 7.5 1.60257
      vertex -35.4056 7.5 0
      vertex -39.0735 7.5 1.56518
    endloop
  endfacet
  facet normal 0 1 0
    outer loop
      vertex -36.6026 7.5 4.0248
      vertex -35.4056 7.5 0
      vertex -37.6542 7.5 2.65424
    endloop
  endfacet
  facet normal 0 1 0
    outer loop
      vertex -36.5652 7.5 4.07353
      vertex -35.4056 7.5 0
      vertex -36.6026 7.5 4.0248
    endloop
  endfacet
  facet normal 0 1 0
    outer loop
      vertex -36.5417 7.5 4.13028
      vertex -35.4056 7.5 0
      vertex -36.5652 7.5 4.07353
    endloop
  endfacet
  facet normal 0 1 0
    outer loop
      vertex -35.8806 7.5 5.72633
      vertex -35.4056 7.5 0
      vertex -36.5417 7.5 4.13028
    endloop
  endfacet
  facet normal 0 1 0
    outer loop
      vertex -35.6551 7.5 7.4391
      vertex -35.4056 7.5 0
      vertex -35.8806 7.5 5.72633
    endloop
  endfacet
  facet normal 0 1 0
    outer loop
      vertex -35.6471 7.5 7.5
      vertex -35.4056 7.5 0
      vertex -35.6551 7.5 7.4391
    endloop
  endfacet
  facet normal 0 1 -0
    outer loop
      vertex -35.4056 7.5 0
      vertex -35.6471 7.5 7.5
      vertex -35.4056 7.5 15
    endloop
  endfacet
  facet normal 0 1 -0
    outer loop
      vertex -44.2128 7.5 14.1274
      vertex -50 7.5 15
      vertex -42.5 7.5 14.3529
    endloop
  endfacet
  facet normal 0 1 -0
    outer loop
      vertex -44.2737 7.5 14.1194
      vertex -50 7.5 15
      vertex -44.2128 7.5 14.1274
    endloop
  endfacet
  facet normal 0 1 -0
    outer loop
      vertex -45.8697 7.5 13.4583
      vertex -50 7.5 15
      vertex -44.2737 7.5 14.1194
    endloop
  endfacet
  facet normal 0 1 -0
    outer loop
      vertex -45.9265 7.5 13.4348
      vertex -50 7.5 15
      vertex -45.8697 7.5 13.4583
    endloop
  endfacet
  facet normal 0 1 -0
    outer loop
      vertex -47.297 7.5 12.3832
      vertex -50 7.5 15
      vertex -45.9265 7.5 13.4348
    endloop
  endfacet
  facet normal 0 1 -0
    outer loop
      vertex -47.3458 7.5 12.3458
      vertex -50 7.5 15
      vertex -47.297 7.5 12.3832
    endloop
  endfacet
  facet normal 0 1 -0
    outer loop
      vertex -47.3832 7.5 12.297
      vertex -50 7.5 15
      vertex -47.3458 7.5 12.3458
    endloop
  endfacet
  facet normal 0 1 -0
    outer loop
      vertex -48.4348 7.5 10.9265
      vertex -50 7.5 15
      vertex -47.3832 7.5 12.297
    endloop
  endfacet
  facet normal 0 1 -0
    outer loop
      vertex -48.4583 7.5 10.8697
      vertex -50 7.5 15
      vertex -48.4348 7.5 10.9265
    endloop
  endfacet
  facet normal 0 1 -0
    outer loop
      vertex -49.1194 7.5 9.27367
      vertex -50 7.5 15
      vertex -48.4583 7.5 10.8697
    endloop
  endfacet
  facet normal 0 1 -0
    outer loop
      vertex -49.1274 7.5 9.21277
      vertex -50 7.5 15
      vertex -49.1194 7.5 9.27367
    endloop
  endfacet
  facet normal 0 1 -0
    outer loop
      vertex -49.3529 7.5 7.5
      vertex -50 7.5 15
      vertex -49.1274 7.5 9.21277
    endloop
  endfacet
  facet normal 0 1 0
    outer loop
      vertex -50 7.5 0
      vertex -48.3974 7.5 4.0248
      vertex -47.3458 7.5 2.65424
    endloop
  endfacet
  facet normal 0 1 0
    outer loop
      vertex -50 7.5 0
      vertex -45.8697 7.5 1.54167
      vertex -44.2737 7.5 0.880567
    endloop
  endfacet
  facet normal 0 1 0
    outer loop
      vertex -50 7.5 0
      vertex -42.5609 7.5 0.655076
      vertex -42.5 7.5 0.647059
    endloop
  endfacet
  facet normal 0 1 0
    outer loop
      vertex -49.3529 7.5 7.5
      vertex -50 7.5 0
      vertex -50 7.5 15
    endloop
  endfacet
  facet normal 0 1 0
    outer loop
      vertex -49.1274 7.5 5.78723
      vertex -50 7.5 0
      vertex -49.3529 7.5 7.5
    endloop
  endfacet
  facet normal 0 1 0
    outer loop
      vertex -49.1194 7.5 5.72633
      vertex -50 7.5 0
      vertex -49.1274 7.5 5.78723
    endloop
  endfacet
  facet normal 0 1 0
    outer loop
      vertex -48.4583 7.5 4.13028
      vertex -50 7.5 0
      vertex -49.1194 7.5 5.72633
    endloop
  endfacet
  facet normal 0 1 0
    outer loop
      vertex -48.4348 7.5 4.07353
      vertex -50 7.5 0
      vertex -48.4583 7.5 4.13028
    endloop
  endfacet
  facet normal 0 1 0
    outer loop
      vertex -48.3974 7.5 4.0248
      vertex -50 7.5 0
      vertex -48.4348 7.5 4.07353
    endloop
  endfacet
  facet normal 0 1 0
    outer loop
      vertex -47.297 7.5 2.61685
      vertex -50 7.5 0
      vertex -47.3458 7.5 2.65424
    endloop
  endfacet
  facet normal 0 1 0
    outer loop
      vertex -45.9265 7.5 1.56518
      vertex -50 7.5 0
      vertex -47.297 7.5 2.61685
    endloop
  endfacet
  facet normal 0 1 0
    outer loop
      vertex -45.8697 7.5 1.54167
      vertex -50 7.5 0
      vertex -45.9265 7.5 1.56518
    endloop
  endfacet
  facet normal 0 1 0
    outer loop
      vertex -42.5609 7.5 0.655076
      vertex -50 7.5 0
      vertex -44.2737 7.5 0.880567
    endloop
  endfacet
  facet normal 0 1 0
    outer loop
      vertex -50 7.5 0
      vertex -42.5 7.5 0.647059
      vertex -35.4056 7.5 0
    endloop
  endfacet
  facet normal 0.511769 0.54001 -0.668192
    outer loop
      vertex -43.6 0.197467 9.31501
      vertex -45.9265 7.5 13.4348
      vertex -43.566 0.204148 9.34645
    endloop
  endfacet
  facet normal 0.512381 0.539962 -0.667762
    outer loop
      vertex -45.9265 7.5 13.4348
      vertex -43.6 0.197467 9.31501
      vertex -47.297 7.5 12.3832
    endloop
  endfacet
  facet normal 0.777655 0.539955 0.322027
    outer loop
      vertex -44.2666 0.0616283 6.48006
      vertex -48.4583 7.5 4.13028
      vertex -44.4649 0.0616283 6.95893
    endloop
  endfacet
  facet normal 0.777656 0.539955 0.322025
    outer loop
      vertex -48.4583 7.5 4.13028
      vertex -44.2666 0.0616283 6.48006
      vertex -48.4348 7.5 4.07353
    endloop
  endfacet
  facet normal -0.512581 0.539937 0.66763
    outer loop
      vertex -39.0735 7.5 1.56518
      vertex -41.0504 0.128616 6.0089
      vertex -39.0248 7.5 1.60257
    endloop
  endfacet
  facet normal -0.512308 0.539972 0.66781
    outer loop
      vertex -41.0504 0.128616 6.0089
      vertex -39.0735 7.5 1.56518
      vertex -41.434 0.204148 5.65355
    endloop
  endfacet
  facet normal 0.834229 0.539788 0.112654
    outer loop
      vertex -44.538 0.0616283 7.48593
      vertex -49.3529 7.5 7.5
      vertex -44.5399 0.0616283 7.5
    endloop
  endfacet
  facet normal 0.834488 0.539961 0.109867
    outer loop
      vertex -49.3529 7.5 7.5
      vertex -44.538 0.0616283 7.48593
      vertex -49.1274 7.5 5.78723
    endloop
  endfacet
  facet normal 0.834507 0.539952 0.109776
    outer loop
      vertex -44.4704 0.0616283 6.97204
      vertex -49.1274 7.5 5.78723
      vertex -44.538 0.0616283 7.48593
    endloop
  endfacet
  facet normal 0.834532 0.539943 0.109626
    outer loop
      vertex -49.1274 7.5 5.78723
      vertex -44.4704 0.0616283 6.97204
      vertex -49.1194 7.5 5.72633
    endloop
  endfacet
  facet normal 0.322087 0.539961 -0.777626
    outer loop
      vertex -43.1131 0.250936 9.56657
      vertex -44.2737 7.5 14.1194
      vertex -43.0606 0.256358 9.59208
    endloop
  endfacet
  facet normal 0.322107 0.53996 -0.777618
    outer loop
      vertex -44.2737 7.5 14.1194
      vertex -43.1131 0.250936 9.56657
      vertex -45.8697 7.5 13.4583
    endloop
  endfacet
  facet normal 0.512413 0.539967 -0.667734
    outer loop
      vertex -43.9711 0.124369 8.97112
      vertex -47.297 7.5 12.3832
      vertex -43.6 0.197467 9.31501
    endloop
  endfacet
  facet normal 0.512005 0.539938 -0.66807
    outer loop
      vertex -47.297 7.5 12.3832
      vertex -43.9711 0.124369 8.97112
      vertex -47.3458 7.5 12.3458
    endloop
  endfacet
  facet normal -0.109626 0.539946 -0.83453
    outer loop
      vertex -41.9394 0.256358 9.59208
      vertex -40.7872 7.5 14.1274
      vertex -40.7263 7.5 14.1194
    endloop
  endfacet
  facet normal -0.10985 0.539958 -0.834493
    outer loop
      vertex -40.7872 7.5 14.1274
      vertex -41.9394 0.256358 9.59208
      vertex -42.4378 0.272527 9.66815
    endloop
  endfacet
  facet normal -0.83449 0.539958 0.109867
    outer loop
      vertex -40.5296 0.0616283 6.97204
      vertex -35.6551 7.5 7.4391
      vertex -35.8806 7.5 5.72633
    endloop
  endfacet
  facet normal -0.834684 0.540278 0.106783
    outer loop
      vertex -35.6551 7.5 7.4391
      vertex -40.5296 0.0616283 6.97204
      vertex -40.5278 0.0616283 6.98611
    endloop
  endfacet
  facet normal -0.667709 0.539951 0.512463
    outer loop
      vertex -41.0145 0.119239 6.05302
      vertex -36.5652 7.5 4.07353
      vertex -36.6026 7.5 4.0248
    endloop
  endfacet
  facet normal -0.667919 0.539686 0.512467
    outer loop
      vertex -40.7334 0.0616283 6.48006
      vertex -41.0145 0.119239 6.05302
      vertex -40.8531 0.0616283 6.32405
    endloop
  endfacet
  facet normal -0.667754 0.53996 0.512395
    outer loop
      vertex -41.0145 0.119239 6.05302
      vertex -40.7334 0.0616283 6.48006
      vertex -36.5652 7.5 4.07353
    endloop
  endfacet
  facet normal -0.666129 0.539792 -0.514682
    outer loop
      vertex -40.7421 0.0616283 8.5312
      vertex -36.5652 7.5 10.9265
      vertex -40.7334 0.0616283 8.51994
    endloop
  endfacet
  facet normal -0.66776 0.539966 -0.51238
    outer loop
      vertex -36.5652 7.5 10.9265
      vertex -40.7421 0.0616283 8.5312
      vertex -37.6168 7.5 12.297
    endloop
  endfacet
  facet normal 0.322086 0.539964 0.777624
    outer loop
      vertex -44.2737 7.5 0.880567
      vertex -43.1131 0.250936 5.43343
      vertex -43.0606 0.256358 5.40792
    endloop
  endfacet
  facet normal 0.322108 0.539962 0.777616
    outer loop
      vertex -43.1131 0.250936 5.43343
      vertex -44.2737 7.5 0.880567
      vertex -45.8697 7.5 1.54167
    endloop
  endfacet
  facet normal 0.834532 0.539943 -0.109626
    outer loop
      vertex -44.4704 0.0616283 8.02796
      vertex -49.1274 7.5 9.21277
      vertex -49.1194 7.5 9.27367
    endloop
  endfacet
  facet normal 0.834507 0.539952 -0.109776
    outer loop
      vertex -49.1274 7.5 9.21277
      vertex -44.4704 0.0616283 8.02796
      vertex -44.538 0.0616283 7.51407
    endloop
  endfacet
  facet normal 0.777765 0.53994 -0.321786
    outer loop
      vertex -44.2666 0.0616283 8.51994
      vertex -48.4583 7.5 10.8697
      vertex -48.4348 7.5 10.9265
    endloop
  endfacet
  facet normal 0.777655 0.539955 -0.322027
    outer loop
      vertex -48.4583 7.5 10.8697
      vertex -44.2666 0.0616283 8.51994
      vertex -44.4649 0.0616283 8.04107
    endloop
  endfacet
  facet normal -0.777655 0.539955 -0.322027
    outer loop
      vertex -40.7334 0.0616283 8.51994
      vertex -36.5417 7.5 10.8697
      vertex -40.5351 0.0616283 8.04107
    endloop
  endfacet
  facet normal -0.777765 0.53994 -0.321786
    outer loop
      vertex -36.5417 7.5 10.8697
      vertex -40.7334 0.0616283 8.51994
      vertex -36.5652 7.5 10.9265
    endloop
  endfacet
  facet normal -0.776293 0.539726 -0.325676
    outer loop
      vertex -40.5351 0.0616283 8.04107
      vertex -35.8806 7.5 9.27367
      vertex -40.5296 0.0616283 8.02796
    endloop
  endfacet
  facet normal -0.777618 0.539963 -0.322101
    outer loop
      vertex -35.8806 7.5 9.27367
      vertex -40.5351 0.0616283 8.04107
      vertex -36.5417 7.5 10.8697
    endloop
  endfacet
  facet normal 0.667709 0.539951 0.512463
    outer loop
      vertex -48.4348 7.5 4.07353
      vertex -43.9855 0.119239 6.05302
      vertex -48.3974 7.5 4.0248
    endloop
  endfacet
  facet normal 0.667754 0.53996 0.512395
    outer loop
      vertex -44.2666 0.0616283 6.48006
      vertex -43.9855 0.119239 6.05302
      vertex -48.4348 7.5 4.07353
    endloop
  endfacet
  facet normal 0.667919 0.539686 0.512467
    outer loop
      vertex -43.9855 0.119239 6.05302
      vertex -44.2666 0.0616283 6.48006
      vertex -44.1469 0.0616283 6.32405
    endloop
  endfacet
  facet normal 0.109918 0.539956 -0.834485
    outer loop
      vertex -42.5622 0.272527 9.66815
      vertex -42.5 7.5 14.3529
      vertex -42.5 0.274547 9.67765
    endloop
  endfacet
  facet normal 0.109865 0.53996 -0.83449
    outer loop
      vertex -42.5 7.5 14.3529
      vertex -42.5622 0.272527 9.66815
      vertex -44.2128 7.5 14.1274
    endloop
  endfacet
  facet normal 0.777618 0.539963 -0.322101
    outer loop
      vertex -44.4649 0.0616283 8.04107
      vertex -49.1194 7.5 9.27367
      vertex -48.4583 7.5 10.8697
    endloop
  endfacet
  facet normal 0.776293 0.539726 -0.325676
    outer loop
      vertex -49.1194 7.5 9.27367
      vertex -44.4649 0.0616283 8.04107
      vertex -44.4704 0.0616283 8.02796
    endloop
  endfacet
  facet normal 0.834488 0.539961 -0.109867
    outer loop
      vertex -44.538 0.0616283 7.51407
      vertex -49.3529 7.5 7.5
      vertex -49.1274 7.5 9.21277
    endloop
  endfacet
  facet normal 0.834229 0.539788 -0.112654
    outer loop
      vertex -49.3529 7.5 7.5
      vertex -44.538 0.0616283 7.51407
      vertex -44.5399 0.0616283 7.5
    endloop
  endfacet
  facet normal -0.3219 0.539952 0.777709
    outer loop
      vertex -39.1303 7.5 1.54167
      vertex -41.434 0.204148 5.65355
      vertex -39.0735 7.5 1.56518
    endloop
  endfacet
  facet normal -0.322148 0.539967 0.777597
    outer loop
      vertex -41.434 0.204148 5.65355
      vertex -39.1303 7.5 1.54167
      vertex -41.8869 0.250936 5.43343
    endloop
  endfacet
  facet normal -0.66807 0.539939 -0.512005
    outer loop
      vertex -37.6168 7.5 12.297
      vertex -41.0289 0.124369 8.97112
      vertex -37.6542 7.5 12.3458
    endloop
  endfacet
  facet normal -0.667779 0.539963 -0.512358
    outer loop
      vertex -40.7421 0.0616283 8.5312
      vertex -41.0289 0.124369 8.97112
      vertex -37.6168 7.5 12.297
    endloop
  endfacet
  facet normal -0.668479 0.538818 -0.512651
    outer loop
      vertex -41.0289 0.124369 8.97112
      vertex -40.7421 0.0616283 8.5312
      vertex -40.8531 0.0616283 8.67594
    endloop
  endfacet
  facet normal 0.66807 0.539939 -0.512005
    outer loop
      vertex -43.9711 0.124369 8.97112
      vertex -47.3832 7.5 12.297
      vertex -47.3458 7.5 12.3458
    endloop
  endfacet
  facet normal 0.668479 0.538818 -0.512651
    outer loop
      vertex -44.2579 0.0616283 8.5312
      vertex -43.9711 0.124369 8.97112
      vertex -44.1469 0.0616283 8.67594
    endloop
  endfacet
  facet normal 0.667779 0.539963 -0.512358
    outer loop
      vertex -43.9711 0.124369 8.97112
      vertex -44.2579 0.0616283 8.5312
      vertex -47.3832 7.5 12.297
    endloop
  endfacet
  facet normal -0.777656 0.539955 0.322025
    outer loop
      vertex -40.7334 0.0616283 6.48006
      vertex -36.5417 7.5 4.13028
      vertex -36.5652 7.5 4.07353
    endloop
  endfacet
  facet normal -0.777655 0.539955 0.322027
    outer loop
      vertex -36.5417 7.5 4.13028
      vertex -40.7334 0.0616283 6.48006
      vertex -40.5351 0.0616283 6.95893
    endloop
  endfacet
  facet normal -0.109918 0.539956 -0.834485
    outer loop
      vertex -42.5 7.5 14.3529
      vertex -42.4378 0.272527 9.66815
      vertex -42.5 0.274547 9.67765
    endloop
  endfacet
  facet normal -0.109865 0.53996 -0.83449
    outer loop
      vertex -42.4378 0.272527 9.66815
      vertex -42.5 7.5 14.3529
      vertex -40.7872 7.5 14.1274
    endloop
  endfacet
  facet normal 0.66776 0.539966 -0.51238
    outer loop
      vertex -44.2579 0.0616283 8.5312
      vertex -48.4348 7.5 10.9265
      vertex -47.3832 7.5 12.297
    endloop
  endfacet
  facet normal 0.666129 0.539792 -0.514682
    outer loop
      vertex -48.4348 7.5 10.9265
      vertex -44.2579 0.0616283 8.5312
      vertex -44.2666 0.0616283 8.51994
    endloop
  endfacet
  facet normal -0.834688 0.540286 -0.106707
    outer loop
      vertex -40.5296 0.0616283 8.02796
      vertex -35.6551 7.5 7.5609
      vertex -40.5278 0.0616283 8.01388
    endloop
  endfacet
  facet normal -0.83449 0.539958 -0.109867
    outer loop
      vertex -35.6551 7.5 7.5609
      vertex -40.5296 0.0616283 8.02796
      vertex -35.8806 7.5 9.27367
    endloop
  endfacet
  facet normal -0.834513 0.539972 -0.109624
    outer loop
      vertex -40.4601 0.0616283 7.5
      vertex -35.6551 7.5 7.5609
      vertex -35.6471 7.5 7.5
    endloop
  endfacet
  facet normal -0.834483 0.539955 -0.109937
    outer loop
      vertex -35.6551 7.5 7.5609
      vertex -40.4601 0.0616283 7.5
      vertex -40.5278 0.0616283 8.01388
    endloop
  endfacet
  facet normal -0.512378 0.539965 0.667762
    outer loop
      vertex -39.0248 7.5 1.60257
      vertex -41.0289 0.124369 6.02888
      vertex -37.6542 7.5 2.65424
    endloop
  endfacet
  facet normal -0.513328 0.539844 0.667131
    outer loop
      vertex -41.0289 0.124369 6.02888
      vertex -39.0248 7.5 1.60257
      vertex -41.0504 0.128616 6.0089
    endloop
  endfacet
  facet normal -0.77762 0.539963 0.322098
    outer loop
      vertex -40.5351 0.0616283 6.95893
      vertex -35.8806 7.5 5.72633
      vertex -36.5417 7.5 4.13028
    endloop
  endfacet
  facet normal -0.776293 0.539726 0.325676
    outer loop
      vertex -35.8806 7.5 5.72633
      vertex -40.5351 0.0616283 6.95893
      vertex -40.5296 0.0616283 6.97204
    endloop
  endfacet
  facet normal 0.322148 0.539964 -0.777598
    outer loop
      vertex -43.566 0.204148 9.34645
      vertex -45.8697 7.5 13.4583
      vertex -43.1131 0.250936 9.56657
    endloop
  endfacet
  facet normal 0.321786 0.539943 -0.777763
    outer loop
      vertex -45.8697 7.5 13.4583
      vertex -43.566 0.204148 9.34645
      vertex -45.9265 7.5 13.4348
    endloop
  endfacet
  facet normal -0.512356 0.539966 -0.667778
    outer loop
      vertex -41.0289 0.124369 8.97112
      vertex -39.0248 7.5 13.3974
      vertex -37.6542 7.5 12.3458
    endloop
  endfacet
  facet normal -0.513134 0.539867 -0.667261
    outer loop
      vertex -39.0248 7.5 13.3974
      vertex -41.0289 0.124369 8.97112
      vertex -41.0504 0.128616 8.99109
    endloop
  endfacet
  facet normal -0.834483 0.539955 0.109935
    outer loop
      vertex -40.4601 0.0616283 7.5
      vertex -35.6551 7.5 7.4391
      vertex -40.5278 0.0616283 6.98611
    endloop
  endfacet
  facet normal -0.834513 0.539972 0.109624
    outer loop
      vertex -35.6551 7.5 7.4391
      vertex -40.4601 0.0616283 7.5
      vertex -35.6471 7.5 7.5
    endloop
  endfacet
  facet normal 0.10985 0.539958 -0.834493
    outer loop
      vertex -43.0606 0.256358 9.59208
      vertex -44.2128 7.5 14.1274
      vertex -42.5622 0.272527 9.66815
    endloop
  endfacet
  facet normal 0.109626 0.539946 -0.83453
    outer loop
      vertex -44.2128 7.5 14.1274
      vertex -43.0606 0.256358 9.59208
      vertex -44.2737 7.5 14.1194
    endloop
  endfacet
  facet normal 0.109854 0.539963 0.834489
    outer loop
      vertex -42.5609 7.5 0.655076
      vertex -42.5 0.274547 5.32235
      vertex -42.5 7.5 0.647059
    endloop
  endfacet
  facet normal 0.109873 0.539962 0.834487
    outer loop
      vertex -42.5 0.274547 5.32235
      vertex -42.5609 7.5 0.655076
      vertex -43.0019 0.258262 5.39897
    endloop
  endfacet
  facet normal -0.322107 0.53996 -0.777618
    outer loop
      vertex -41.8869 0.250936 9.56657
      vertex -40.7263 7.5 14.1194
      vertex -39.1303 7.5 13.4583
    endloop
  endfacet
  facet normal -0.322087 0.539961 -0.777626
    outer loop
      vertex -40.7263 7.5 14.1194
      vertex -41.8869 0.250936 9.56657
      vertex -41.9394 0.256358 9.59208
    endloop
  endfacet
  facet normal -0.667772 0.539965 0.512366
    outer loop
      vertex -41.0289 0.124369 6.02888
      vertex -36.6026 7.5 4.0248
      vertex -37.6542 7.5 2.65424
    endloop
  endfacet
  facet normal -0.667435 0.5399 0.512873
    outer loop
      vertex -36.6026 7.5 4.0248
      vertex -41.0289 0.124369 6.02888
      vertex -41.0145 0.119239 6.05302
    endloop
  endfacet
  facet normal -0.322108 0.539962 0.777616
    outer loop
      vertex -40.7263 7.5 0.880567
      vertex -41.8869 0.250936 5.43343
      vertex -39.1303 7.5 1.54167
    endloop
  endfacet
  facet normal -0.322086 0.539964 0.777624
    outer loop
      vertex -41.8869 0.250936 5.43343
      vertex -40.7263 7.5 0.880567
      vertex -41.9394 0.256358 5.40792
    endloop
  endfacet
  facet normal 0.511649 0.54002 0.668277
    outer loop
      vertex -45.9265 7.5 1.56518
      vertex -43.6 0.197467 5.68498
      vertex -43.566 0.204148 5.65355
    endloop
  endfacet
  facet normal 0.512403 0.539961 0.667746
    outer loop
      vertex -43.6 0.197467 5.68498
      vertex -45.9265 7.5 1.56518
      vertex -47.297 7.5 2.61685
    endloop
  endfacet
  facet normal -0.109861 0.539963 0.834488
    outer loop
      vertex -42.4391 7.5 0.655076
      vertex -41.9394 0.256358 5.40792
      vertex -40.7263 7.5 0.880567
    endloop
  endfacet
  facet normal -0.109721 0.539978 0.834497
    outer loop
      vertex -41.9394 0.256358 5.40792
      vertex -42.4391 7.5 0.655076
      vertex -41.9981 0.258262 5.39897
    endloop
  endfacet
  facet normal -0.512672 0.539924 -0.66757
    outer loop
      vertex -41.0504 0.128616 8.99109
      vertex -39.0735 7.5 13.4348
      vertex -39.0248 7.5 13.3974
    endloop
  endfacet
  facet normal -0.512319 0.53997 -0.667803
    outer loop
      vertex -39.0735 7.5 13.4348
      vertex -41.0504 0.128616 8.99109
      vertex -41.434 0.204148 9.34645
    endloop
  endfacet
  facet normal -0.321786 0.539943 -0.777763
    outer loop
      vertex -41.434 0.204148 9.34645
      vertex -39.1303 7.5 13.4583
      vertex -39.0735 7.5 13.4348
    endloop
  endfacet
  facet normal -0.322148 0.539964 -0.777598
    outer loop
      vertex -39.1303 7.5 13.4583
      vertex -41.434 0.204148 9.34645
      vertex -41.8869 0.250936 9.56657
    endloop
  endfacet
  facet normal 0.322148 0.539967 0.777597
    outer loop
      vertex -45.8697 7.5 1.54167
      vertex -43.566 0.204148 5.65355
      vertex -43.1131 0.250936 5.43343
    endloop
  endfacet
  facet normal 0.3219 0.539952 0.777709
    outer loop
      vertex -43.566 0.204148 5.65355
      vertex -45.8697 7.5 1.54167
      vertex -45.9265 7.5 1.56518
    endloop
  endfacet
  facet normal 0.109721 0.539978 0.834497
    outer loop
      vertex -42.5609 7.5 0.655076
      vertex -43.0606 0.256358 5.40792
      vertex -43.0019 0.258262 5.39897
    endloop
  endfacet
  facet normal 0.109861 0.539963 0.834488
    outer loop
      vertex -43.0606 0.256358 5.40792
      vertex -42.5609 7.5 0.655076
      vertex -44.2737 7.5 0.880567
    endloop
  endfacet
  facet normal 0.512425 0.539964 0.667727
    outer loop
      vertex -47.297 7.5 2.61685
      vertex -43.9711 0.124369 6.02888
      vertex -43.6 0.197467 5.68498
    endloop
  endfacet
  facet normal 0.511922 0.539929 0.668141
    outer loop
      vertex -43.9711 0.124369 6.02888
      vertex -47.297 7.5 2.61685
      vertex -47.3458 7.5 2.65424
    endloop
  endfacet
  facet normal 0.667772 0.539965 0.512366
    outer loop
      vertex -48.3974 7.5 4.0248
      vertex -43.9711 0.124369 6.02888
      vertex -47.3458 7.5 2.65424
    endloop
  endfacet
  facet normal 0.667435 0.5399 0.512873
    outer loop
      vertex -43.9711 0.124369 6.02888
      vertex -48.3974 7.5 4.0248
      vertex -43.9855 0.119239 6.05302
    endloop
  endfacet
  facet normal 0.776293 0.539726 0.325676
    outer loop
      vertex -44.4649 0.0616283 6.95893
      vertex -49.1194 7.5 5.72633
      vertex -44.4704 0.0616283 6.97204
    endloop
  endfacet
  facet normal 0.77762 0.539963 0.322098
    outer loop
      vertex -49.1194 7.5 5.72633
      vertex -44.4649 0.0616283 6.95893
      vertex -48.4583 7.5 4.13028
    endloop
  endfacet
  facet normal -0.109854 0.539963 0.834489
    outer loop
      vertex -42.5 0.274547 5.32235
      vertex -42.4391 7.5 0.655076
      vertex -42.5 7.5 0.647059
    endloop
  endfacet
  facet normal -0.109873 0.539962 0.834487
    outer loop
      vertex -42.4391 7.5 0.655076
      vertex -42.5 0.274547 5.32235
      vertex -41.9981 0.258262 5.39897
    endloop
  endfacet
  facet normal -0.987688 0.156434 0
    outer loop
      vertex -35.4056 7.5 0
      vertex -5.12077 198.711 15
      vertex -5.12077 198.711 0
    endloop
  endfacet
  facet normal -0.987688 0.156434 0
    outer loop
      vertex -5.12077 198.711 15
      vertex -35.4056 7.5 0
      vertex -35.4056 7.5 15
    endloop
  endfacet
  facet normal 0.987664 -0.156588 0
    outer loop
      vertex 1.36508 191.718 15
      vertex 1.38141 191.821 0
      vertex 1.38141 191.821 15
    endloop
  endfacet
  facet normal 0.987664 -0.156588 0
    outer loop
      vertex 1.38141 191.821 0
      vertex 1.36508 191.718 15
      vertex 1.36508 191.718 0
    endloop
  endfacet
  facet normal 0.987688 -0.156434 0
    outer loop
      vertex -27.8121 7.5 15
      vertex 0 183.099 0
      vertex 0 183.099 15
    endloop
  endfacet
  facet normal 0.987688 -0.156434 0
    outer loop
      vertex 0 183.099 0
      vertex -27.8121 7.5 15
      vertex -27.8121 7.5 0
    endloop
  endfacet
  facet normal 0.156232 0.98772 -0
    outer loop
      vertex -3.64139 198.477 0
      vertex -5.12077 198.711 15
      vertex -3.64139 198.477 15
    endloop
  endfacet
  facet normal 0.156232 0.98772 0
    outer loop
      vertex -5.12077 198.711 15
      vertex -3.64139 198.477 0
      vertex -5.12077 198.711 0
    endloop
  endfacet
  facet normal 0.809322 -0.587365 0
    outer loop
      vertex -4.11095 197.83 15
      vertex -3.64139 198.477 0
      vertex -3.64139 198.477 15
    endloop
  endfacet
  facet normal 0.809322 -0.587365 0
    outer loop
      vertex -3.64139 198.477 0
      vertex -4.11095 197.83 15
      vertex -4.11095 197.83 0
    endloop
  endfacet
  facet normal 0.97814 -0.207948 0
    outer loop
      vertex -4.5 196 15
      vertex -4.11095 197.83 0
      vertex -4.11095 197.83 15
    endloop
  endfacet
  facet normal 0.97814 -0.207948 0
    outer loop
      vertex -4.11095 197.83 0
      vertex -4.5 196 15
      vertex -4.5 196 0
    endloop
  endfacet
  facet normal 0.50016 0.865933 -0
    outer loop
      vertex -1.39058 191.72 0
      vertex -3.01109 192.656 15
      vertex -1.39058 191.72 15
    endloop
  endfacet
  facet normal 0.50016 0.865933 0
    outer loop
      vertex -3.01109 192.656 15
      vertex -1.39058 191.72 0
      vertex -3.01109 192.656 0
    endloop
  endfacet
  facet normal 0.97814 0.207948 0
    outer loop
      vertex -4.11095 194.17 15
      vertex -4.5 196 0
      vertex -4.5 196 15
    endloop
  endfacet
  facet normal 0.97814 0.207948 0
    outer loop
      vertex -4.5 196 0
      vertex -4.11095 194.17 15
      vertex -4.11095 194.17 0
    endloop
  endfacet
  facet normal -0.309285 0.950969 0
    outer loop
      vertex 1.38141 191.821 0
      vertex 0.9202 191.671 15
      vertex 1.38141 191.821 15
    endloop
  endfacet
  facet normal -0.309285 0.950969 0
    outer loop
      vertex 0.9202 191.671 15
      vertex 1.38141 191.821 0
      vertex 0.9202 191.671 0
    endloop
  endfacet
  facet normal 0.0781912 0.996938 -0
    outer loop
      vertex -1.36508 191.718 0
      vertex -1.39058 191.72 15
      vertex -1.36508 191.718 15
    endloop
  endfacet
  facet normal 0.0781912 0.996938 0
    outer loop
      vertex -1.39058 191.72 15
      vertex -1.36508 191.718 0
      vertex -1.39058 191.72 0
    endloop
  endfacet
  facet normal 0.104831 0.99449 -0
    outer loop
      vertex 0 191.574 0
      vertex -0.9202 191.671 15
      vertex 0 191.574 15
    endloop
  endfacet
  facet normal 0.104831 0.99449 0
    outer loop
      vertex -0.9202 191.671 15
      vertex 0 191.574 0
      vertex -0.9202 191.671 0
    endloop
  endfacet
  facet normal 0.809049 0.587741 0
    outer loop
      vertex -3.01109 192.656 15
      vertex -4.11095 194.17 0
      vertex -4.11095 194.17 15
    endloop
  endfacet
  facet normal 0.809049 0.587741 0
    outer loop
      vertex -4.11095 194.17 0
      vertex -3.01109 192.656 15
      vertex -3.01109 192.656 0
    endloop
  endfacet
  facet normal 0 -0.978133 0.207982
    outer loop
      vertex -42.4378 0.272527 9.66815
      vertex 42.5 0.274547 9.67765
      vertex -42.5 0.274547 9.67765
    endloop
  endfacet
  facet normal 0 -0.978133 0.207982
    outer loop
      vertex -42.4378 0.272527 9.66815
      vertex 42.4378 0.272527 9.66815
      vertex 42.5 0.274547 9.67765
    endloop
  endfacet
  facet normal 0 -0.978148 0.20791
    outer loop
      vertex -41.9394 0.256358 9.59208
      vertex 42.4378 0.272527 9.66815
      vertex -42.4378 0.272527 9.66815
    endloop
  endfacet
  facet normal 0 -0.978148 0.20791
    outer loop
      vertex -41.9394 0.256358 9.59208
      vertex 41.9394 0.256358 9.59208
      vertex 42.4378 0.272527 9.66815
    endloop
  endfacet
  facet normal 0 -0.97815 0.2079
    outer loop
      vertex -41.8869 0.250936 9.56657
      vertex 41.9394 0.256358 9.59208
      vertex -41.9394 0.256358 9.59208
    endloop
  endfacet
  facet normal 0 -0.97815 0.2079
    outer loop
      vertex -41.8869 0.250936 9.56657
      vertex 41.8869 0.250936 9.56657
      vertex 41.9394 0.256358 9.59208
    endloop
  endfacet
  facet normal 0 -0.978148 0.207912
    outer loop
      vertex -41.434 0.204148 9.34645
      vertex 41.8869 0.250936 9.56657
      vertex -41.8869 0.250936 9.56657
    endloop
  endfacet
  facet normal 0 -0.978148 0.207912
    outer loop
      vertex -41.434 0.204148 9.34645
      vertex 41.434 0.204148 9.34645
      vertex 41.8869 0.250936 9.56657
    endloop
  endfacet
  facet normal 0 -0.978149 0.207906
    outer loop
      vertex -41.0504 0.128616 8.99109
      vertex 41.434 0.204148 9.34645
      vertex -41.434 0.204148 9.34645
    endloop
  endfacet
  facet normal 0 -0.978149 0.207906
    outer loop
      vertex -41.0504 0.128616 8.99109
      vertex 41.0504 0.128616 8.99109
      vertex 41.434 0.204148 9.34645
    endloop
  endfacet
  facet normal 0 -0.978125 0.208017
    outer loop
      vertex -41.0289 0.124369 8.97112
      vertex 41.0504 0.128616 8.99109
      vertex -41.0504 0.128616 8.99109
    endloop
  endfacet
  facet normal 0 -0.978125 0.208017
    outer loop
      vertex -41.0289 0.124369 8.97112
      vertex 41.0289 0.124369 8.97112
      vertex 41.0504 0.128616 8.99109
    endloop
  endfacet
  facet normal 0 -0.978149 0.207906
    outer loop
      vertex -40.8531 0.0616283 8.67594
      vertex 41.0289 0.124369 8.97112
      vertex -41.0289 0.124369 8.97112
    endloop
  endfacet
  facet normal 0 -0.978149 0.207906
    outer loop
      vertex 41.0289 0.124369 8.97112
      vertex -40.8531 0.0616283 8.67594
      vertex 40.8531 0.0616283 8.67594
    endloop
  endfacet
  facet normal 0 -0.978146 0.207918
    outer loop
      vertex -50 0.550613 10.9764
      vertex -42.5 0.274547 9.67765
      vertex 50 0.550613 10.9764
    endloop
  endfacet
  facet normal 5.45583e-06 -0.97814 0.207948
    outer loop
      vertex -50 0.550613 10.9764
      vertex -42.5622 0.272527 9.66815
      vertex -42.5 0.274547 9.67765
    endloop
  endfacet
  facet normal -7.29113e-07 -0.978147 0.207914
    outer loop
      vertex -50 0.550613 10.9764
      vertex -43.0606 0.256358 9.59208
      vertex -42.5622 0.272527 9.66815
    endloop
  endfacet
  facet normal -2.59328e-06 -0.978149 0.207905
    outer loop
      vertex -50 0.550613 10.9764
      vertex -43.1131 0.250936 9.56657
      vertex -43.0606 0.256358 9.59208
    endloop
  endfacet
  facet normal -8.05961e-07 -0.978147 0.207913
    outer loop
      vertex -50 0.550613 10.9764
      vertex -43.566 0.204148 9.34645
      vertex -43.1131 0.250936 9.56657
    endloop
  endfacet
  facet normal -1.20082e-05 -0.978156 0.207871
    outer loop
      vertex -50 0.550613 10.9764
      vertex -43.6 0.197467 9.31501
      vertex -43.566 0.204148 9.34645
    endloop
  endfacet
  facet normal 3.15333e-07 -0.978147 0.207917
    outer loop
      vertex -50 0.550613 10.9764
      vertex -43.9711 0.124369 8.97112
      vertex -43.6 0.197467 9.31501
    endloop
  endfacet
  facet normal 0 -0.978147 0.207914
    outer loop
      vertex -44.1469 0.0616283 8.67594
      vertex -50 0.550613 10.9764
      vertex -50 0.0616283 8.67594
    endloop
  endfacet
  facet normal -2.76773e-06 -0.978148 0.207908
    outer loop
      vertex -50 0.550613 10.9764
      vertex -44.1469 0.0616283 8.67594
      vertex -43.9711 0.124369 8.97112
    endloop
  endfacet
  facet normal 0 -0.978146 0.207918
    outer loop
      vertex 42.5 0.274547 9.67765
      vertex 50 0.550613 10.9764
      vertex -42.5 0.274547 9.67765
    endloop
  endfacet
  facet normal -5.45583e-06 -0.97814 0.207948
    outer loop
      vertex 42.5622 0.272527 9.66815
      vertex 50 0.550613 10.9764
      vertex 42.5 0.274547 9.67765
    endloop
  endfacet
  facet normal 7.29113e-07 -0.978147 0.207914
    outer loop
      vertex 43.0606 0.256358 9.59208
      vertex 50 0.550613 10.9764
      vertex 42.5622 0.272527 9.66815
    endloop
  endfacet
  facet normal 2.59328e-06 -0.978149 0.207905
    outer loop
      vertex 43.1131 0.250936 9.56657
      vertex 50 0.550613 10.9764
      vertex 43.0606 0.256358 9.59208
    endloop
  endfacet
  facet normal 8.05961e-07 -0.978147 0.207913
    outer loop
      vertex 43.566 0.204148 9.34645
      vertex 50 0.550613 10.9764
      vertex 43.1131 0.250936 9.56657
    endloop
  endfacet
  facet normal 1.20082e-05 -0.978156 0.207871
    outer loop
      vertex 43.6 0.197467 9.31501
      vertex 50 0.550613 10.9764
      vertex 43.566 0.204148 9.34645
    endloop
  endfacet
  facet normal -3.15333e-07 -0.978147 0.207917
    outer loop
      vertex 43.9711 0.124369 8.97112
      vertex 50 0.550613 10.9764
      vertex 43.6 0.197467 9.31501
    endloop
  endfacet
  facet normal 2.76773e-06 -0.978148 0.207908
    outer loop
      vertex 44.1469 0.0616283 8.67594
      vertex 50 0.550613 10.9764
      vertex 43.9711 0.124369 8.97112
    endloop
  endfacet
  facet normal 0 -0.978147 0.207914
    outer loop
      vertex 50 0.550613 10.9764
      vertex 44.1469 0.0616283 8.67594
      vertex 50 0.0616283 8.67594
    endloop
  endfacet
  facet normal 0 -0.978148 -0.207912
    outer loop
      vertex -50 0.550613 4.02356
      vertex -44.1469 0.0616283 6.32405
      vertex -50 0.0616283 6.32405
    endloop
  endfacet
  facet normal 1.65684e-06 -0.978147 -0.207916
    outer loop
      vertex -44.1469 0.0616283 6.32405
      vertex -50 0.550613 4.02356
      vertex -43.9855 0.119239 6.05302
    endloop
  endfacet
  facet normal -1.25544e-05 -0.978155 -0.207876
    outer loop
      vertex -43.9855 0.119239 6.05302
      vertex -50 0.550613 4.02356
      vertex -43.9711 0.124369 6.02888
    endloop
  endfacet
  facet normal -1.49365e-07 -0.978148 -0.207911
    outer loop
      vertex -43.9711 0.124369 6.02888
      vertex -50 0.550613 4.02356
      vertex -43.6 0.197467 5.68498
    endloop
  endfacet
  facet normal 2.15736e-06 -0.978146 -0.20792
    outer loop
      vertex -43.6 0.197467 5.68498
      vertex -50 0.550613 4.02356
      vertex -43.566 0.204148 5.65355
    endloop
  endfacet
  facet normal 4.373e-08 -0.978148 -0.207912
    outer loop
      vertex -43.566 0.204148 5.65355
      vertex -50 0.550613 4.02356
      vertex -43.1131 0.250936 5.43343
    endloop
  endfacet
  facet normal -1.74369e-06 -0.978149 -0.207903
    outer loop
      vertex -43.1131 0.250936 5.43343
      vertex -50 0.550613 4.02356
      vertex -43.0606 0.256358 5.40792
    endloop
  endfacet
  facet normal 1.52768e-05 -0.978132 -0.207985
    outer loop
      vertex -43.0606 0.256358 5.40792
      vertex -50 0.550613 4.02356
      vertex -43.0019 0.258262 5.39897
    endloop
  endfacet
  facet normal 0 -0.978148 -0.207911
    outer loop
      vertex -42.5 0.274547 5.32235
      vertex -50 0.550613 4.02356
      vertex 42.5 0.274547 5.32235
    endloop
  endfacet
  facet normal -1.10197e-06 -0.978149 -0.207905
    outer loop
      vertex -43.0019 0.258262 5.39897
      vertex -50 0.550613 4.02356
      vertex -42.5 0.274547 5.32235
    endloop
  endfacet
  facet normal 0 -0.978147 -0.207917
    outer loop
      vertex -41.0145 0.119239 6.05302
      vertex 40.8531 0.0616283 6.32405
      vertex -40.8531 0.0616283 6.32405
    endloop
  endfacet
  facet normal 0 -0.978147 -0.207917
    outer loop
      vertex -41.0145 0.119239 6.05302
      vertex 41.0145 0.119239 6.05302
      vertex 40.8531 0.0616283 6.32405
    endloop
  endfacet
  facet normal 0 -0.978157 -0.207868
    outer loop
      vertex -41.0289 0.124369 6.02888
      vertex 41.0145 0.119239 6.05302
      vertex -41.0145 0.119239 6.05302
    endloop
  endfacet
  facet normal 0 -0.978157 -0.207868
    outer loop
      vertex -41.0289 0.124369 6.02888
      vertex 41.0289 0.124369 6.02888
      vertex 41.0145 0.119239 6.05302
    endloop
  endfacet
  facet normal 0 -0.978146 -0.207917
    outer loop
      vertex -41.0504 0.128616 6.0089
      vertex 41.0289 0.124369 6.02888
      vertex -41.0289 0.124369 6.02888
    endloop
  endfacet
  facet normal 0 -0.978146 -0.207917
    outer loop
      vertex -41.0504 0.128616 6.0089
      vertex 41.0504 0.128616 6.0089
      vertex 41.0289 0.124369 6.02888
    endloop
  endfacet
  facet normal 0 -0.978148 -0.207912
    outer loop
      vertex -41.434 0.204148 5.65355
      vertex 41.0504 0.128616 6.0089
      vertex -41.0504 0.128616 6.0089
    endloop
  endfacet
  facet normal 0 -0.978148 -0.207912
    outer loop
      vertex -41.434 0.204148 5.65355
      vertex 41.434 0.204148 5.65355
      vertex 41.0504 0.128616 6.0089
    endloop
  endfacet
  facet normal 0 -0.978148 -0.207912
    outer loop
      vertex -41.8869 0.250936 5.43343
      vertex 41.434 0.204148 5.65355
      vertex -41.434 0.204148 5.65355
    endloop
  endfacet
  facet normal 0 -0.978148 -0.207912
    outer loop
      vertex -41.8869 0.250936 5.43343
      vertex 41.8869 0.250936 5.43343
      vertex 41.434 0.204148 5.65355
    endloop
  endfacet
  facet normal 0 -0.97815 -0.2079
    outer loop
      vertex -41.9394 0.256358 5.40792
      vertex 41.8869 0.250936 5.43343
      vertex -41.8869 0.250936 5.43343
    endloop
  endfacet
  facet normal 0 -0.97815 -0.2079
    outer loop
      vertex -41.9394 0.256358 5.40792
      vertex 41.9394 0.256358 5.40792
      vertex 41.8869 0.250936 5.43343
    endloop
  endfacet
  facet normal 0 -0.978112 -0.208081
    outer loop
      vertex -41.9981 0.258262 5.39897
      vertex 41.9394 0.256358 5.40792
      vertex -41.9394 0.256358 5.40792
    endloop
  endfacet
  facet normal 0 -0.978112 -0.208081
    outer loop
      vertex -41.9981 0.258262 5.39897
      vertex 41.9981 0.258262 5.39897
      vertex 41.9394 0.256358 5.40792
    endloop
  endfacet
  facet normal 0 -0.97815 -0.207898
    outer loop
      vertex -42.5 0.274547 5.32235
      vertex 41.9981 0.258262 5.39897
      vertex -41.9981 0.258262 5.39897
    endloop
  endfacet
  facet normal 0 -0.97815 -0.207898
    outer loop
      vertex 41.9981 0.258262 5.39897
      vertex -42.5 0.274547 5.32235
      vertex 42.5 0.274547 5.32235
    endloop
  endfacet
  facet normal -1.65684e-06 -0.978147 -0.207916
    outer loop
      vertex 50 0.550613 4.02356
      vertex 44.1469 0.0616283 6.32405
      vertex 43.9855 0.119239 6.05302
    endloop
  endfacet
  facet normal 1.25544e-05 -0.978155 -0.207876
    outer loop
      vertex 50 0.550613 4.02356
      vertex 43.9855 0.119239 6.05302
      vertex 43.9711 0.124369 6.02888
    endloop
  endfacet
  facet normal 1.49365e-07 -0.978148 -0.207911
    outer loop
      vertex 50 0.550613 4.02356
      vertex 43.9711 0.124369 6.02888
      vertex 43.6 0.197467 5.68498
    endloop
  endfacet
  facet normal -2.15736e-06 -0.978146 -0.20792
    outer loop
      vertex 50 0.550613 4.02356
      vertex 43.6 0.197467 5.68498
      vertex 43.566 0.204148 5.65355
    endloop
  endfacet
  facet normal -4.373e-08 -0.978148 -0.207912
    outer loop
      vertex 50 0.550613 4.02356
      vertex 43.566 0.204148 5.65355
      vertex 43.1131 0.250936 5.43343
    endloop
  endfacet
  facet normal 1.74369e-06 -0.978149 -0.207903
    outer loop
      vertex 50 0.550613 4.02356
      vertex 43.1131 0.250936 5.43343
      vertex 43.0606 0.256358 5.40792
    endloop
  endfacet
  facet normal -1.52768e-05 -0.978132 -0.207985
    outer loop
      vertex 50 0.550613 4.02356
      vertex 43.0606 0.256358 5.40792
      vertex 43.0019 0.258262 5.39897
    endloop
  endfacet
  facet normal 1.10197e-06 -0.978149 -0.207905
    outer loop
      vertex 50 0.550613 4.02356
      vertex 43.0019 0.258262 5.39897
      vertex 42.5 0.274547 5.32235
    endloop
  endfacet
  facet normal 0 -0.978148 -0.207912
    outer loop
      vertex 44.1469 0.0616283 6.32405
      vertex 50 0.550613 4.02356
      vertex 50 0.0616283 6.32405
    endloop
  endfacet
  facet normal -0 -0.978148 -0.207911
    outer loop
      vertex 50 0.550613 4.02356
      vertex 42.5 0.274547 5.32235
      vertex -50 0.550613 4.02356
    endloop
  endfacet
  facet normal 0 -0.913546 -0.406735
    outer loop
      vertex -50 1.50721 1.875
      vertex 50 0.550613 4.02356
      vertex -50 0.550613 4.02356
    endloop
  endfacet
  facet normal 0 -0.913546 -0.406735
    outer loop
      vertex 50 0.550613 4.02356
      vertex -50 1.50721 1.875
      vertex 50 1.50721 1.875
    endloop
  endfacet
  facet normal 0 -0.809016 -0.587786
    outer loop
      vertex -50 2.86948 0
      vertex 50 1.50721 1.875
      vertex -50 1.50721 1.875
    endloop
  endfacet
  facet normal 0 -0.809016 -0.587786
    outer loop
      vertex 50 1.50721 1.875
      vertex -50 2.86948 0
      vertex 50 2.86948 0
    endloop
  endfacet
  facet normal 0 -0.809016 0.587786
    outer loop
      vertex -50 1.50721 13.125
      vertex 50 2.86948 15
      vertex -50 2.86948 15
    endloop
  endfacet
  facet normal 0 -0.809016 0.587786
    outer loop
      vertex 50 2.86948 15
      vertex -50 1.50721 13.125
      vertex 50 1.50721 13.125
    endloop
  endfacet
  facet normal 0 -1 0
    outer loop
      vertex -50 0.0616283 8.67594
      vertex -44.2579 0.0616283 8.5312
      vertex -44.1469 0.0616283 8.67594
    endloop
  endfacet
  facet normal 0 -1 0
    outer loop
      vertex -50 0.0616283 8.67594
      vertex -44.2666 0.0616283 8.51994
      vertex -44.2579 0.0616283 8.5312
    endloop
  endfacet
  facet normal 0 -1 0
    outer loop
      vertex -50 0.0616283 8.67594
      vertex -44.4649 0.0616283 8.04107
      vertex -44.2666 0.0616283 8.51994
    endloop
  endfacet
  facet normal 0 -1 0
    outer loop
      vertex -50 0.0616283 8.67594
      vertex -44.4704 0.0616283 8.02796
      vertex -44.4649 0.0616283 8.04107
    endloop
  endfacet
  facet normal 0 -1 0
    outer loop
      vertex -50 0.0616283 8.67594
      vertex -44.538 0.0616283 7.51407
      vertex -44.4704 0.0616283 8.02796
    endloop
  endfacet
  facet normal 0 -1 0
    outer loop
      vertex -50 0.0616283 8.67594
      vertex -44.5399 0.0616283 7.5
      vertex -44.538 0.0616283 7.51407
    endloop
  endfacet
  facet normal 0 -1 0
    outer loop
      vertex -50 0.0616283 6.32405
      vertex -44.5399 0.0616283 7.5
      vertex -50 0.0616283 8.67594
    endloop
  endfacet
  facet normal 0 -1 -0
    outer loop
      vertex -44.5399 0.0616283 7.5
      vertex -50 0.0616283 6.32405
      vertex -44.538 0.0616283 7.48593
    endloop
  endfacet
  facet normal 0 -1 -0
    outer loop
      vertex -44.538 0.0616283 7.48593
      vertex -50 0.0616283 6.32405
      vertex -44.4704 0.0616283 6.97204
    endloop
  endfacet
  facet normal 0 -1 -0
    outer loop
      vertex -44.4704 0.0616283 6.97204
      vertex -50 0.0616283 6.32405
      vertex -44.4649 0.0616283 6.95893
    endloop
  endfacet
  facet normal 0 -1 -0
    outer loop
      vertex -44.4649 0.0616283 6.95893
      vertex -50 0.0616283 6.32405
      vertex -44.2666 0.0616283 6.48006
    endloop
  endfacet
  facet normal 0 -1 -0
    outer loop
      vertex -44.2666 0.0616283 6.48006
      vertex -50 0.0616283 6.32405
      vertex -44.1469 0.0616283 6.32405
    endloop
  endfacet
  facet normal 0 -1 0
    outer loop
      vertex 44.2579 0.0616283 8.5312
      vertex 50 0.0616283 8.67594
      vertex 44.1469 0.0616283 8.67594
    endloop
  endfacet
  facet normal 0 -1 0
    outer loop
      vertex 44.2666 0.0616283 8.51994
      vertex 50 0.0616283 8.67594
      vertex 44.2579 0.0616283 8.5312
    endloop
  endfacet
  facet normal 0 -1 0
    outer loop
      vertex 44.4649 0.0616283 8.04107
      vertex 50 0.0616283 8.67594
      vertex 44.2666 0.0616283 8.51994
    endloop
  endfacet
  facet normal 0 -1 0
    outer loop
      vertex 44.4704 0.0616283 8.02796
      vertex 50 0.0616283 8.67594
      vertex 44.4649 0.0616283 8.04107
    endloop
  endfacet
  facet normal 0 -1 0
    outer loop
      vertex 44.538 0.0616283 7.51407
      vertex 50 0.0616283 8.67594
      vertex 44.4704 0.0616283 8.02796
    endloop
  endfacet
  facet normal 0 -1 0
    outer loop
      vertex 44.5399 0.0616283 7.5
      vertex 50 0.0616283 8.67594
      vertex 44.538 0.0616283 7.51407
    endloop
  endfacet
  facet normal 0 -1 0
    outer loop
      vertex 50 0.0616283 6.32405
      vertex 44.5399 0.0616283 7.5
      vertex 44.538 0.0616283 7.48593
    endloop
  endfacet
  facet normal 0 -1 0
    outer loop
      vertex 50 0.0616283 6.32405
      vertex 44.538 0.0616283 7.48593
      vertex 44.4704 0.0616283 6.97204
    endloop
  endfacet
  facet normal 0 -1 0
    outer loop
      vertex 50 0.0616283 6.32405
      vertex 44.4704 0.0616283 6.97204
      vertex 44.4649 0.0616283 6.95893
    endloop
  endfacet
  facet normal 0 -1 0
    outer loop
      vertex 50 0.0616283 6.32405
      vertex 44.4649 0.0616283 6.95893
      vertex 44.2666 0.0616283 6.48006
    endloop
  endfacet
  facet normal 0 -1 0
    outer loop
      vertex 50 0.0616283 6.32405
      vertex 44.2666 0.0616283 6.48006
      vertex 44.1469 0.0616283 6.32405
    endloop
  endfacet
  facet normal 0 -1 0
    outer loop
      vertex 44.5399 0.0616283 7.5
      vertex 50 0.0616283 6.32405
      vertex 50 0.0616283 8.67594
    endloop
  endfacet
  facet normal 0 -1 0
    outer loop
      vertex -40.7421 0.0616283 8.5312
      vertex 40.8531 0.0616283 8.67594
      vertex -40.8531 0.0616283 8.67594
    endloop
  endfacet
  facet normal 0 -1 0
    outer loop
      vertex -40.7421 0.0616283 8.5312
      vertex 40.7421 0.0616283 8.5312
      vertex 40.8531 0.0616283 8.67594
    endloop
  endfacet
  facet normal 0 -1 0
    outer loop
      vertex -40.7334 0.0616283 8.51994
      vertex 40.7421 0.0616283 8.5312
      vertex -40.7421 0.0616283 8.5312
    endloop
  endfacet
  facet normal 0 -1 0
    outer loop
      vertex -40.7334 0.0616283 8.51994
      vertex 40.7334 0.0616283 8.51994
      vertex 40.7421 0.0616283 8.5312
    endloop
  endfacet
  facet normal 0 -1 0
    outer loop
      vertex -40.5351 0.0616283 8.04107
      vertex 40.7334 0.0616283 8.51994
      vertex -40.7334 0.0616283 8.51994
    endloop
  endfacet
  facet normal 0 -1 0
    outer loop
      vertex -40.5351 0.0616283 8.04107
      vertex 40.5351 0.0616283 8.04107
      vertex 40.7334 0.0616283 8.51994
    endloop
  endfacet
  facet normal 0 -1 0
    outer loop
      vertex -40.5296 0.0616283 8.02796
      vertex 40.5351 0.0616283 8.04107
      vertex -40.5351 0.0616283 8.04107
    endloop
  endfacet
  facet normal 0 -1 0
    outer loop
      vertex -40.5296 0.0616283 8.02796
      vertex 40.5296 0.0616283 8.02796
      vertex 40.5351 0.0616283 8.04107
    endloop
  endfacet
  facet normal 0 -1 0
    outer loop
      vertex -40.5278 0.0616283 8.01388
      vertex 40.5296 0.0616283 8.02796
      vertex -40.5296 0.0616283 8.02796
    endloop
  endfacet
  facet normal 0 -1 0
    outer loop
      vertex -40.5278 0.0616283 8.01388
      vertex 40.5278 0.0616283 8.01388
      vertex 40.5296 0.0616283 8.02796
    endloop
  endfacet
  facet normal 0 -1 0
    outer loop
      vertex -40.4601 0.0616283 7.5
      vertex 40.5278 0.0616283 8.01388
      vertex -40.5278 0.0616283 8.01388
    endloop
  endfacet
  facet normal 0 -1 0
    outer loop
      vertex -40.4601 0.0616283 7.5
      vertex 40.4601 0.0616283 7.5
      vertex 40.5278 0.0616283 8.01388
    endloop
  endfacet
  facet normal 0 -1 0
    outer loop
      vertex -40.5278 0.0616283 6.98611
      vertex 40.4601 0.0616283 7.5
      vertex -40.4601 0.0616283 7.5
    endloop
  endfacet
  facet normal 0 -1 0
    outer loop
      vertex -40.5278 0.0616283 6.98611
      vertex 40.5278 0.0616283 6.98611
      vertex 40.4601 0.0616283 7.5
    endloop
  endfacet
  facet normal 0 -1 0
    outer loop
      vertex -40.5296 0.0616283 6.97204
      vertex 40.5278 0.0616283 6.98611
      vertex -40.5278 0.0616283 6.98611
    endloop
  endfacet
  facet normal 0 -1 0
    outer loop
      vertex -40.5296 0.0616283 6.97204
      vertex 40.5296 0.0616283 6.97204
      vertex 40.5278 0.0616283 6.98611
    endloop
  endfacet
  facet normal 0 -1 0
    outer loop
      vertex -40.5351 0.0616283 6.95893
      vertex 40.5296 0.0616283 6.97204
      vertex -40.5296 0.0616283 6.97204
    endloop
  endfacet
  facet normal 0 -1 0
    outer loop
      vertex -40.5351 0.0616283 6.95893
      vertex 40.5351 0.0616283 6.95893
      vertex 40.5296 0.0616283 6.97204
    endloop
  endfacet
  facet normal 0 -1 0
    outer loop
      vertex -40.7334 0.0616283 6.48006
      vertex 40.5351 0.0616283 6.95893
      vertex -40.5351 0.0616283 6.95893
    endloop
  endfacet
  facet normal 0 -1 0
    outer loop
      vertex -40.7334 0.0616283 6.48006
      vertex 40.7334 0.0616283 6.48006
      vertex 40.5351 0.0616283 6.95893
    endloop
  endfacet
  facet normal 0 -1 0
    outer loop
      vertex -40.8531 0.0616283 6.32405
      vertex 40.7334 0.0616283 6.48006
      vertex -40.7334 0.0616283 6.48006
    endloop
  endfacet
  facet normal 0 -1 -0
    outer loop
      vertex 40.7334 0.0616283 6.48006
      vertex -40.8531 0.0616283 6.32405
      vertex 40.8531 0.0616283 6.32405
    endloop
  endfacet
  facet normal 0 -0.913549 0.406729
    outer loop
      vertex -50 0.550613 10.9764
      vertex 50 1.50721 13.125
      vertex -50 1.50721 13.125
    endloop
  endfacet
  facet normal 0 -0.913549 0.406729
    outer loop
      vertex 50 1.50721 13.125
      vertex -50 0.550613 10.9764
      vertex 50 0.550613 10.9764
    endloop
  endfacet
endsolid OpenSCAD_Model
